<svg id="Layer_1" data-name="Layer 1" xmlns="http://www.w3.org/2000/svg" xmlns:xlink="http://www.w3.org/1999/xlink" viewBox="0 0 2267.72 595.28"><defs><style>.cls-1{fill:#fff;}.cls-2{fill:#dae4f4;}.cls-3{fill:#b7c8e7;}.cls-4{fill:#121740;}.cls-5{fill:#879ed1;}.cls-6{fill:#203061;}.cls-7{fill:#f1f2f2;}.cls-8{fill:#f58774;}.cls-14,.cls-15,.cls-16,.cls-22,.cls-26,.cls-28,.cls-34,.cls-36,.cls-37,.cls-9{fill:none;}.cls-14,.cls-26,.cls-9{stroke:#879ed1;}.cls-14,.cls-22,.cls-26,.cls-28,.cls-34,.cls-36,.cls-37,.cls-9{stroke-linecap:round;stroke-linejoin:round;}.cls-15,.cls-28,.cls-9{stroke-width:3px;}.cls-10{fill:#2d3f72;}.cls-11{fill:#28375e;}.cls-12{fill:#e2b026;}.cls-13{fill:url(#linear-gradient);}.cls-14{stroke-width:5px;}.cls-15,.cls-16,.cls-34{stroke:#2d3f72;}.cls-15,.cls-16{stroke-miterlimit:10;}.cls-16,.cls-36{stroke-width:2px;}.cls-17{fill:#54539d;}.cls-18{fill:#f1ba1c;}.cls-19{fill:url(#linear-gradient-2);}.cls-20{fill:url(#linear-gradient-3);}.cls-21{fill:url(#linear-gradient-4);}.cls-22{stroke:#28375e;}.cls-22,.cls-34{stroke-width:6px;}.cls-23{fill:url(#linear-gradient-5);}.cls-24{fill:url(#New_Gradient_Swatch_6);}.cls-25{fill:url(#New_Gradient_Swatch_6-2);}.cls-26{stroke-width:4px;}.cls-27{fill:#131724;}.cls-28{stroke:#b9cee2;}.cls-29{fill:#5756a0;}.cls-30{fill:url(#New_Gradient_Swatch_6-3);}.cls-31{fill:#e9b820;}.cls-32{fill:url(#New_Gradient_Swatch_6-4);}.cls-33{fill:url(#linear-gradient-6);}.cls-35{fill:url(#New_Gradient_Swatch_6-5);}.cls-36,.cls-37{stroke:#f1ba1c;}.cls-37{stroke-width:0.75px;}</style><linearGradient id="linear-gradient" x1="1499.18" y1="359.2" x2="1499.18" y2="342.93" gradientUnits="userSpaceOnUse"><stop offset="0" stop-color="#f58a76"/><stop offset="1" stop-color="#e08e76"/></linearGradient><linearGradient id="linear-gradient-2" x1="1438.5" y1="252.61" x2="1438.5" y2="241.33" gradientUnits="userSpaceOnUse"><stop offset="0" stop-color="#f58a76"/><stop offset="1" stop-color="#e6a58f"/></linearGradient><linearGradient id="linear-gradient-3" x1="1661.38" y1="88.72" x2="1681.23" y2="88.72" gradientTransform="matrix(0.95, 0.3, -0.3, 0.95, -119.53, -348.55)" xlink:href="#linear-gradient-2"/><linearGradient id="linear-gradient-4" x1="1660.9" y1="93.01" x2="1664.9" y2="93.01" gradientTransform="matrix(0.95, 0.3, -0.3, 0.95, -119.53, -348.55)" xlink:href="#linear-gradient-2"/><linearGradient id="linear-gradient-5" x1="1489.19" y1="364.04" x2="1489.19" y2="348.77" xlink:href="#linear-gradient-2"/><linearGradient id="New_Gradient_Swatch_6" x1="1036.77" y1="489.39" x2="1036.77" y2="343.55" gradientUnits="userSpaceOnUse"><stop offset="0" stop-color="#a0716d"/><stop offset="1" stop-color="#e6a58f"/></linearGradient><linearGradient id="New_Gradient_Swatch_6-2" x1="1048.68" y1="332.1" x2="1089.16" y2="332.1" xlink:href="#New_Gradient_Swatch_6"/><linearGradient id="New_Gradient_Swatch_6-3" x1="977.7" y1="429.33" x2="1088.11" y2="429.33" xlink:href="#New_Gradient_Swatch_6"/><linearGradient id="New_Gradient_Swatch_6-4" x1="1370.61" y1="293.5" x2="1390.41" y2="285.61" gradientTransform="translate(-126.61 -509.13) rotate(21.73)" xlink:href="#New_Gradient_Swatch_6"/><linearGradient id="linear-gradient-6" x1="1039.53" y1="301.67" x2="1039.53" y2="276.56" gradientUnits="userSpaceOnUse"><stop offset="0" stop-color="#a0716d"/><stop offset="1" stop-color="#bc857b"/></linearGradient><linearGradient id="New_Gradient_Swatch_6-5" x1="1016.25" y1="334.36" x2="1083.2" y2="334.36" xlink:href="#New_Gradient_Swatch_6"/></defs><title>header-1-01</title><rect class="cls-1" x="-92.45" y="-0.58" width="2384.53" height="537"/><polygon class="cls-2" points="580.76 79.96 580.76 247.28 593.46 249.93 593.46 444.95 615.2 438.32 615.2 324.22 677.52 328.2 685.58 563.07 -81.93 552.41 -81.93 502 -81.93 306.98 21.55 306.98 21.55 470.16 42.72 459.54 36.92 352.08 136.92 356.06 136.92 450.26 235.48 448.93 229.68 375.96 326.78 369.33 326.78 259.22 435.48 252.58 435.48 446.28 467.37 447.6 467.37 252.58 480.65 252.58 480.65 79.96 580.76 79.96"/><path class="cls-2" d="M833,253.09s-9.42.61-9.42,7.9,3.95,9.42,8.81,9.42h88.41s14,.3,14-12.15-18.14-10-18.14-10-6.72,1.89-6.72,3.62.87-3.79-2.92-6.72a7.44,7.44,0,0,0-7.58-1s-2.75-14.29-16.87-14.29-18.94,9.3-18.77,14.12c0,0-1.89-1.9-5.68-.52a5.62,5.62,0,0,0-4,4.65s-4.82-6.2-11.53-4.65S833,253.09,833,253.09Z"/><polyline class="cls-3" points="838.82 485.31 838.82 203.29 944.46 201.11 950.57 403.25 996.73 406.06 988.9 95.77 1079.56 141.29 1079.56 245.87 1148.99 245.87 1165.56 384.46 1205.32 386.86 1186.89 104.45 1285.3 104.45 1296.27 381.02 1365.85 378.69 1362.84 257.66 1465.83 254.23 1478.33 511.79 848.58 491.01"/><polygon class="cls-2" points="765.44 535 765.44 339.98 868.91 339.98 868.91 503.16 890.08 492.54 884.28 385.08 984.29 389.06 984.29 483.26 1082.84 481.93 1077.04 408.96 1174.15 402.33 1174.15 292.22 1282.85 285.58 1282.85 479.28 1314.73 480.6 1314.73 285.58 1339.37 285.58 1339.37 205.98 1361.11 196.7 1361.11 101.18 1377.05 101.18 1377.05 194.04 1401.69 202 1401.69 280.28 1440.82 282.93 1440.82 477.95 1462.56 485.6 1462.56 357.22 1524.88 361.2 1532.95 596.07 765.44 585.41 765.44 535"/><polyline class="cls-2" points="2291.86 562.44 1569.97 552.41 1569.97 502 1569.97 306.98 1673.45 306.98 1673.45 470.16 1694.61 459.54 1688.82 352.08 1788.82 356.06 1788.82 450.26 1887.37 448.93 1881.58 375.96 1978.68 369.33 1978.68 259.22 2087.38 252.58 2087.38 446.28 2119.26 447.6 2119.26 252.58 2143.9 252.58 2143.9 172.98 2165.64 161.2 2181.59 161.04 2206.22 169 2206.22 247.28 2245.36 249.93 2245.36 444.95 2267.1 438.32 2267.1 324.22 2292.09 325.8"/><rect class="cls-3" x="-92.45" y="476.3" width="2384.53" height="25.29"/><path class="cls-4" d="M2224.81,504s-4.8-63.06-8.87-68.88,11.83,7.76,21.08,67.42"/><path class="cls-4" d="M2257,503s-4.81-30.56-2.59-46.09a269.22,269.22,0,0,1,7-32s-14.8,20.86-17.38,46.57,0,32,0,32"/><path class="cls-4" d="M2223.28,503.39s-9-12.7-18.63-16.74-22.29-5-22.29-5,14.67,5,20.09,11.54,6,10.39,6,10.39"/><path class="cls-4" d="M2264.65,503.78s1.76-15.2,10.56-26.36,15.11-15.78,15.11-15.78-33,8.85-41.07,41.94"/><path class="cls-4" d="M2219.18,503.39s-7.93-26-17.75-36.94a55.32,55.32,0,0,0-22.74-14.81s15.55,10,24.94,32.32c4.11,9.77,7,19.43,7,19.43"/><path class="cls-4" d="M2240.59,503.58s-.29-42.9-5.87-63.1-11-31.74-11-31.74,5,25,5.14,45.78-2.79,48.29-2.79,48.29"/><path class="cls-4" d="M2214.92,503s.59-30.21-7-48.1a245.7,245.7,0,0,0-16.43-31.74s17.31,8.84,26.7,39.82,9.39,40.59,9.39,40.59"/><path class="cls-4" d="M2247.49,503s9.82-37.14,18.77-48.29a150.51,150.51,0,0,1,16.72-17.9A63.23,63.23,0,0,0,2249.69,464c-12.33,21-15.11,39.44-15.11,39.44"/><path class="cls-5" d="M205.06,505.26s-4.81-63.06-8.88-68.88,11.84,7.76,21.08,67.42"/><path class="cls-5" d="M237.23,504.29s-4.81-30.56-2.59-46.08a269.22,269.22,0,0,1,7-32s-14.79,20.85-17.38,46.56,0,32,0,32"/><path class="cls-5" d="M203.53,504.67S194.58,492,184.9,487.94s-22.3-5-22.3-5,14.67,5,20.1,11.54,6,10.39,6,10.39"/><path class="cls-5" d="M244.89,505.06s1.76-15.2,10.56-26.36,15.11-15.77,15.11-15.77-33,8.85-41.07,41.94"/><path class="cls-5" d="M199.42,504.67s-7.92-26-17.75-36.93a55.28,55.28,0,0,0-22.74-14.82s15.55,10,24.94,32.32c4.11,9.77,7,19.43,7,19.43"/><path class="cls-5" d="M220.83,504.87S220.54,462,215,441.76,204,410,204,410s5,25,5.13,45.79-2.79,48.29-2.79,48.29"/><path class="cls-5" d="M195.16,504.29s.59-30.2-7-48.1a244.23,244.23,0,0,0-16.43-31.74s17.31,8.85,26.7,39.82,9.39,40.6,9.39,40.6"/><path class="cls-5" d="M227.73,504.29s9.83-37.13,18.78-48.29a148.88,148.88,0,0,1,16.72-17.89,63.23,63.23,0,0,0-33.3,27.13c-12.32,21-15.11,39.43-15.11,39.43"/><path class="cls-5" d="M2110.57,504s-2.63-34.41-4.84-37.58,6.45,4.23,11.5,36.78"/><path class="cls-5" d="M2128.12,503.45s-2.62-16.67-1.41-25.14a147.29,147.29,0,0,1,3.83-17.47s-8.07,11.38-9.48,25.41,0,17.46,0,17.46"/><path class="cls-5" d="M2109.73,503.66s-4.88-6.93-10.16-9.13a46.07,46.07,0,0,0-12.16-2.73s8,2.73,11,6.29,3.28,5.67,3.28,5.67"/><path class="cls-5" d="M2132.3,503.87s1-8.3,5.76-14.38a48.92,48.92,0,0,1,8.24-8.61s-18,4.83-22.4,22.88"/><path class="cls-5" d="M2107.49,503.66s-4.32-14.17-9.68-20.16a30.16,30.16,0,0,0-12.4-8.08s8.48,5.46,13.6,17.64c2.24,5.32,3.84,10.6,3.84,10.6"/><path class="cls-5" d="M2119.18,503.76s-.16-23.4-3.21-34.42a119.43,119.43,0,0,0-6-17.32s2.72,13.64,2.8,25-1.52,26.34-1.52,26.34"/><path class="cls-5" d="M2105.17,503.45s.32-16.48-3.84-26.24a134.15,134.15,0,0,0-9-17.32s9.44,4.83,14.56,21.73,5.12,22.14,5.12,22.14"/><path class="cls-5" d="M2122.94,503.45s5.36-20.26,10.24-26.35a82.39,82.39,0,0,1,9.12-9.76,34.49,34.49,0,0,0-18.16,14.8,66.8,66.8,0,0,0-8.25,21.52"/><path class="cls-6" d="M2256.73,504s-2.62-34.41-4.84-37.58,6.45,4.23,11.5,36.78"/><path class="cls-6" d="M2274.28,503.45s-2.62-16.67-1.41-25.14a147.29,147.29,0,0,1,3.83-17.47s-8.07,11.38-9.48,25.41,0,17.46,0,17.46"/><path class="cls-6" d="M2255.9,503.66s-4.89-6.93-10.17-9.13a46.07,46.07,0,0,0-12.16-2.73s8,2.73,11,6.29,3.28,5.67,3.28,5.67"/><path class="cls-6" d="M2253.65,503.66s-4.32-14.17-9.68-20.16a30.16,30.16,0,0,0-12.4-8.08s8.48,5.46,13.6,17.64c2.24,5.32,3.84,10.6,3.84,10.6"/><path class="cls-6" d="M2265.34,503.76s-.16-23.4-3.2-34.42a119.43,119.43,0,0,0-6-17.32s2.72,13.64,2.8,25-1.52,26.34-1.52,26.34"/><path class="cls-6" d="M2251.33,503.45s.32-16.48-3.84-26.24a134.15,134.15,0,0,0-9-17.32s9.44,4.83,14.56,21.73,5.13,22.14,5.13,22.14"/><path class="cls-6" d="M2269.1,503.45s5.36-20.26,10.24-26.35a82.39,82.39,0,0,1,9.12-9.76,34.49,34.49,0,0,0-18.16,14.8,66.9,66.9,0,0,0-8.24,21.52"/><path class="cls-6" d="M122,505.26s-2.63-34.4-4.85-37.58,6.46,4.24,11.51,36.79"/><path class="cls-6" d="M139.57,504.73s-2.62-16.67-1.41-25.14A146.86,146.86,0,0,1,142,462.13s-8.07,11.38-9.48,25.4,0,17.47,0,17.47"/><path class="cls-6" d="M121.18,504.94S116.3,498,111,495.81a46.52,46.52,0,0,0-12.16-2.73s8,2.73,11,6.3,3.28,5.67,3.28,5.67"/><path class="cls-6" d="M143.75,505.15s1-8.29,5.76-14.38a48.55,48.55,0,0,1,8.24-8.6s-18,4.82-22.4,22.88"/><path class="cls-6" d="M118.94,504.94s-4.32-14.17-9.68-20.15a30.16,30.16,0,0,0-12.41-8.08s8.49,5.46,13.61,17.63c2.24,5.33,3.84,10.6,3.84,10.6"/><path class="cls-6" d="M130.62,505.05s-.16-23.41-3.2-34.43a119.43,119.43,0,0,0-6-17.32s2.72,13.65,2.8,25-1.52,26.35-1.52,26.35"/><path class="cls-6" d="M116.62,504.73s.32-16.48-3.84-26.24a134.15,134.15,0,0,0-9-17.32s9.44,4.83,14.56,21.73,5.12,22.15,5.12,22.15"/><path class="cls-6" d="M134.39,504.73s5.36-20.26,10.24-26.34a81.41,81.41,0,0,1,9.12-9.76,34.44,34.44,0,0,0-18.16,14.79,66.88,66.88,0,0,0-8.25,21.52"/><path class="cls-3" d="M1674.13,234.92s-6.86.44-6.86,5.76,2.88,6.87,6.42,6.87h64.46s10.19.22,10.19-8.86-13.23-7.29-13.23-7.29-4.89,1.38-4.89,2.64.63-2.77-2.14-4.9a5.41,5.41,0,0,0-5.52-.75s-2-10.42-12.3-10.42-13.81,6.78-13.68,10.29c0,0-1.38-1.38-4.15-.38a4.09,4.09,0,0,0-2.88,3.39s-3.52-4.52-8.41-3.39S1674.13,234.92,1674.13,234.92Z"/><path class="cls-5" d="M191.62,236.66s-9.42.61-9.42,7.9,4,9.42,8.81,9.42h88.41s14,.3,14-12.15-18.14-10-18.14-10-6.72,1.9-6.72,3.62.86-3.79-2.92-6.72a7.44,7.44,0,0,0-7.58-1s-2.75-14.29-16.87-14.29-18.94,9.3-18.77,14.12c0,0-1.89-1.9-5.68-.52a5.62,5.62,0,0,0-4,4.65s-4.82-6.2-11.53-4.65S191.62,236.66,191.62,236.66Z"/><path class="cls-3" d="M81.94,286.06s-6.86.45-6.86,5.76,2.88,6.87,6.42,6.87H146s10.19.22,10.19-8.86-13.23-7.29-13.23-7.29-4.89,1.38-4.89,2.64.63-2.76-2.14-4.9a5.41,5.41,0,0,0-5.52-.75s-2-10.42-12.3-10.42-13.81,6.78-13.68,10.29c0,0-1.38-1.38-4.15-.37a4.08,4.08,0,0,0-2.88,3.39S93.84,277.9,89,279,81.94,286.06,81.94,286.06Z"/><path class="cls-5" d="M693.64,301.13a44.63,44.63,0,0,0-1-5.59l-10.13,1.88c4.44,12.3,3.71,32.93-6.55,37.38s-17.63-25.89-17.63-25.89l-8.69,7.15s9.23,1.65,6.5,43S645.92,494.4,645.92,494.4s0,4.1,16.06,3.76,13-4.44,13-4.44-8.25-53.62-9.56-91a90.19,90.19,0,0,1,10.77-46l10.42-19.32A61.27,61.27,0,0,0,693.64,301.13Z"/><circle class="cls-6" cx="653.51" cy="211.91" r="54.09"/><path class="cls-6" d="M590.48,192.94s11.66-1.16,24-18.3,27,25.82,27,25.82l-28.18,37Z"/><path class="cls-6" d="M718.81,177.79s-11.12,3.69-29.41-6.93-14.14,34.58-14.14,34.58l40.79,22.3Z"/><path class="cls-6" d="M1874.4,219.06l-9-.28s2,17-9.62,17-7.54-16.22-7.54-16.22l-13.79,2.55c6,16.75,5,44.84-8.91,50.89s-24-35.24-24-35.24l-11.83,9.74s12.57,2.24,8.85,58.54-14,184.27-14,184.27,0,5.58,21.87,5.12,17.68-6,17.68-6-19.54-127-11.17-162.86S1880.92,257.68,1874.4,219.06Z"/><path class="cls-4" d="M648.26,506.41s-6.76-88.72-12.49-96.91,16.66,10.92,29.67,94.86"/><path class="cls-4" d="M693.54,505.05s-6.77-43-3.65-64.84,9.89-45,9.89-45S679,424.51,675.32,460.68s0,45.05,0,45.05"/><path class="cls-4" d="M646.11,505.59S633.52,487.72,619.9,482s-31.37-7-31.37-7,20.64,7,28.27,16.24,8.46,14.62,8.46,14.62"/><path class="cls-4" d="M704.31,506.13s2.48-21.38,14.86-37.09,21.26-22.19,21.26-22.19-46.44,12.45-57.79,59"/><path class="cls-4" d="M640.33,505.59s-11.14-36.55-25-52a77.86,77.86,0,0,0-32-20.84s21.87,14.08,35.08,45.48c5.78,13.74,9.91,27.34,9.91,27.34"/><path class="cls-4" d="M670.46,505.86s-.41-60.37-8.25-88.79-15.48-44.66-15.48-44.66,7,35.19,7.22,64.42S650,504.78,650,504.78"/><path class="cls-4" d="M634.35,505.05s.82-42.5-9.91-67.68a344.89,344.89,0,0,0-23.12-44.66s24.36,12.45,37.57,56,13.21,57.12,13.21,57.12"/><path class="cls-4" d="M680.17,505.05S694,452.8,706.58,437.1a210.46,210.46,0,0,1,23.53-25.17s-29.51,8.66-46.85,38.17S662,505.59,662,505.59"/><path class="cls-6" d="M693.17,506.41s-3.69-48.4-6.81-52.87,9.08,6,16.18,51.76"/><path class="cls-6" d="M717.87,505.67s-3.69-23.46-2-35.37a207.61,207.61,0,0,1,5.4-24.58s-11.36,16-13.35,35.75,0,24.57,0,24.57"/><path class="cls-6" d="M692,506s-6.87-9.74-14.3-12.84-17.12-3.84-17.12-3.84,11.26,3.84,15.43,8.86,4.62,8,4.62,8"/><path class="cls-6" d="M723.75,506.26s1.35-11.67,8.11-20.23,11.59-12.11,11.59-12.11-25.33,6.79-31.52,32.19"/><path class="cls-6" d="M688.84,506s-6.08-19.93-13.62-28.35a42.36,42.36,0,0,0-17.45-11.37s11.93,7.68,19.14,24.81c3.15,7.5,5.4,14.91,5.4,14.91"/><path class="cls-6" d="M705.28,506.11s-.22-32.93-4.5-48.44a168.49,168.49,0,0,0-8.44-24.36s3.82,19.19,3.94,35.14-2.14,37.07-2.14,37.07"/><path class="cls-6" d="M685.58,505.67s.45-23.19-5.41-36.92a187.46,187.46,0,0,0-12.61-24.37s13.29,6.8,20.5,30.57,7.2,31.16,7.2,31.16"/><path class="cls-6" d="M710.58,505.67s7.54-28.5,14.41-37.07a115.7,115.7,0,0,1,12.83-13.73,48.46,48.46,0,0,0-25.55,20.82A94.14,94.14,0,0,0,700.67,506"/><path class="cls-4" d="M1809.29,506s-5.62-73.67-10.37-80.47,13.83,9.07,24.63,78.77"/><path class="cls-4" d="M1846.88,504.85s-5.61-35.7-3-53.84a314.26,314.26,0,0,1,8.21-37.4S1834.78,438,1831.76,468s0,37.4,0,37.4"/><path class="cls-4" d="M1807.5,505.3s-10.45-14.84-21.76-19.56-26-5.84-26-5.84,17.14,5.84,23.48,13.48,7,12.14,7,12.14"/><path class="cls-4" d="M1855.83,505.75s2.06-17.76,12.34-30.8,17.65-18.43,17.65-18.43-38.56,10.34-48,49"/><path class="cls-4" d="M1802.71,505.3S1793.45,475,1782,462.14a64.6,64.6,0,0,0-26.56-17.31s18.16,11.69,29.13,37.76c4.8,11.42,8.23,22.71,8.23,22.71"/><path class="cls-4" d="M1827.73,505.52s-.35-50.12-6.86-73.72S1808,394.71,1808,394.71s5.82,29.22,6,53.5-3.26,56.41-3.26,56.41"/><path class="cls-4" d="M1797.74,504.85s.68-35.29-8.23-56.19a286.54,286.54,0,0,0-19.19-37.09s20.22,10.34,31.19,46.53,11,47.42,11,47.42"/><path class="cls-4" d="M1835.78,504.85s11.48-43.38,21.94-56.42a174.41,174.41,0,0,1,19.53-20.9,73.86,73.86,0,0,0-38.9,31.69c-14.39,24.5-17.65,46.08-17.65,46.08"/><path class="cls-4" d="M1775.57,506s-1.87-24.47-3.45-26.73,4.59,3,8.18,26.17"/><path class="cls-4" d="M1788.05,505.6s-1.86-11.85-1-17.88a105,105,0,0,1,2.72-12.42,42.32,42.32,0,0,0-6.74,18.07c-1,10,0,12.42,0,12.42"/><path class="cls-4" d="M1775,505.75s-3.47-4.92-7.23-6.49a32.77,32.77,0,0,0-8.65-1.94s5.69,1.94,7.8,4.48,2.33,4,2.33,4"/><path class="cls-4" d="M1791,505.9a23.05,23.05,0,0,1,4.1-10.23,35.5,35.5,0,0,1,5.86-6.12s-12.8,3.44-15.93,16.28"/><path class="cls-4" d="M1773.38,505.75s-3.08-10.08-6.89-14.33a21.38,21.38,0,0,0-8.82-5.75,29,29,0,0,1,9.67,12.54c1.6,3.79,2.74,7.54,2.74,7.54"/><path class="cls-4" d="M1781.69,505.83s-.12-16.65-2.28-24.49a84.33,84.33,0,0,0-4.27-12.32,111.76,111.76,0,0,1,2,17.77c.06,8.06-1.08,18.74-1.08,18.74"/><path class="cls-4" d="M1771.73,505.6s.22-11.72-2.73-18.66a95.27,95.27,0,0,0-6.38-12.32s6.72,3.44,10.36,15.46,3.64,15.75,3.64,15.75"/><path class="cls-4" d="M1784.36,505.6s3.82-14.4,7.29-18.73a58.34,58.34,0,0,1,6.49-6.95,24.53,24.53,0,0,0-12.92,10.53,47.77,47.77,0,0,0-5.87,15.3"/><path class="cls-6" d="M706.35,181.56C677,192.36,651.46,215,623.88,200.3q-.71-.36-1.41-.75c-47.34-25.4-95,24.85-87.49,62.88,12.36,62.7,66.18,99.31,114.67,55.44s78.5,1.16,110.82-38.09C789.78,244.19,798.27,147.72,706.35,181.56Z"/><rect class="cls-2" x="-92.45" y="501.18" width="2384.53" height="95.84"/><rect class="cls-3" x="-92.45" y="512.98" width="2384.53" height="5.3"/><path class="cls-5" d="M1898.67,24.35v0s-11.61,2.57-29.7-8.18a15.66,15.66,0,0,0-1.71-.89,61.55,61.55,0,0,0-72.41-3,11,11,0,0,0-1.88,1.37,51.07,51.07,0,0,0-7,6.47c-10.56,8.17-19.34,7.88-20.25,7.82q-5.19-2.25-10.23-4.92l-1.91-1c-64.45-34.58-161.9,77-136.75,160.32s106.88,125.75,172.9,66,106.88,1.57,150.89-51.87C1978,150.94,1999.52,4.25,1898.67,24.35Z"/><circle class="cls-7" cx="1054.74" cy="141.6" r="28.65"/><circle class="cls-7" cx="1054.74" cy="224.64" r="28.65"/><circle class="cls-7" cx="1054.74" cy="290.83" r="28.65"/><circle class="cls-7" cx="1054.74" cy="356.55" r="28.65"/><circle class="cls-7" cx="1191.76" cy="338.28" r="28.65"/><circle class="cls-7" cx="913.34" cy="338.28" r="28.65"/><circle class="cls-7" cx="929.94" cy="244.45" r="28.65"/><circle class="cls-7" cx="1174.09" cy="244.45" r="28.65"/><circle class="cls-7" cx="1054.74" cy="437.1" r="28.65"/><polygon class="cls-7" points="857.52 503.24 894.88 503.24 928.1 257.44 1054.33 137.86 1154.81 237.51 1175.57 261.59 1212.11 502.41 1248.64 502.41 1202.97 353.77 1182.21 245.81 1055.23 128.16 946.37 225.88 916.48 253.29 899.87 354.6 857.52 503.24"/><polyline class="cls-7" points="1046.85 156.13 1046.85 446.78 1036.89 505.74 1073.42 505.74 1059.31 443.45 1059.31 151.15"/><polyline class="cls-7" points="938.9 262.42 1051.83 360.41 1163.94 262.42 1156.47 255.78 1051.83 345.46 940.56 254.12"/><polyline class="cls-7" points="930.97 358.01 1052.54 445.37 1174.1 357.67 1166.99 351.91 1052.2 436.91 937.4 350.22"/><polyline class="cls-7" points="1173.08 318.89 1051 215.92 931.42 318.06 938.07 328.03 1051 230.87 1173.08 331.35"/><polyline class="cls-7" points="940.24 334.31 1158.09 258.77 1149.74 251.26 934.82 327.63"/><polyline class="cls-7" points="951.05 259.33 1168.08 337.16 1166.29 326.07 951.01 250.73"/><path class="cls-3" d="M1411.25,299.35s-9.41.61-9.41,7.9,4,9.42,8.81,9.42h88.4s14,.3,14-12.16-18.14-10-18.14-10-6.71,1.89-6.71,3.61.86-3.78-2.93-6.71a7.4,7.4,0,0,0-7.57-1s-2.76-14.29-16.88-14.29-18.93,9.29-18.76,14.11c0,0-1.9-1.89-5.68-.51a5.62,5.62,0,0,0-4,4.65s-4.82-6.2-11.54-4.65S1411.25,299.35,1411.25,299.35Z"/><ellipse class="cls-3" cx="1387.6" cy="532.84" rx="231.99" ry="6.93"/><path class="cls-8" d="M1378.72,318.29l20.37,20.37,10.84,2.17-48.11,81.48,6.07-.86s64.58-55.48,72.38-71.09,6.07-24.7,2.6-29.47S1416,303.12,1416,303.12l-59-10.76-.25,1.1"/><line class="cls-9" x1="1389.2" y1="449.08" x2="1369.06" y2="427.7"/><path class="cls-5" d="M1362.47,427.41a13.13,13.13,0,0,1,1.74-1.52c.58,0,1.16,0,1.74,0h8.69a14.59,14.59,0,0,1,1.73,1.5,15.57,15.57,0,0,1-1.73,1.5H1366c-.58,0-1.16,0-1.74,0A13,13,0,0,1,1362.47,427.41Z"/><path class="cls-10" d="M1362.13,425.69c.06.8.11,1.31,1.46,1.31,2.14,0,13.69.14,13.69.14a2,2,0,0,0,2.28-2.28c0-2.57-6-1.57-7.84-3.14-1.61-1.36-3-4.67-3.35-5.51a.28.28,0,0,0-.29-.18l-2,.13a.3.3,0,0,0-.25.42,5,5,0,0,1-.68,4.68s-1.08,1.17-2.56-.25c-1-1-1.71,1.28-.86,3a4.31,4.31,0,0,1,.4,1.69"/><path class="cls-11" d="M1362.1,425.25s-.26,1.68,1,1.72,14.52.18,14.52.18a1.92,1.92,0,0,0,1.85-1.46Z"/><path class="cls-12" d="M1409.85,340.93l-42.16-8.67,2.73-33.26,8.44-8s23.17,2.39,51.81,19.5c22.36,13.36,18.87,30.33,8.27,43.7s-62.58,61.09-62.58,61.09l-7.63-6.58Z"/><path class="cls-13" d="M1496.58,342.93c1.69,4.11,2.45,6.48,2.45,6.48l8.12.72-3.58,9.07s-6-5.67-12.36-12.41"/><path class="cls-11" d="M1457.15,273.49s-12.64-22.2-16.51-23.23-4,8.65-4,8.65l3.61,25.68s1.39-.62,3.36-1.58l5.51,12.18s29.13,37.26,37,46.1c1.65,1.85,3.37,3.71,5.07,5.5l5.37-3.86c-1.43-3.49-3.53-8.23-6.38-13.82-6.21-12.18-15.85-22.54-18.72-29.2"/><path class="cls-4" d="M1281.58,380.78c-41,0-74.3,34.17-74.3,76.31s33.27,76.31,74.3,76.31,74.31-34.16,74.31-76.31S1322.62,380.78,1281.58,380.78Zm0,145.76c-37.34,0-67.62-31.09-67.62-69.45s30.28-69.44,67.62-69.44,67.63,31.09,67.63,69.44S1318.93,526.54,1281.58,526.54Z"/><path class="cls-5" d="M1273.85,385c-38.84,0-70.32,32.72-70.32,73.09s31.48,73.1,70.32,73.1,70.31-32.73,70.31-73.1S1312.68,385,1273.85,385Zm0,139.62c-35.34,0-64-29.79-64-66.53s28.65-66.52,64-66.52,64,29.78,64,66.52S1309.19,524.66,1273.85,524.66Z"/><path class="cls-10" d="M1274.74,381.16a76.31,76.31,0,1,0,76.31,76.31A76.32,76.32,0,0,0,1274.74,381.16Zm0,145.76a69.45,69.45,0,1,1,69.45-69.45A69.45,69.45,0,0,1,1274.74,526.92Z"/><path class="cls-4" d="M1514.23,380.78c-41,0-74.31,34.17-74.31,76.31s33.27,76.31,74.31,76.31,74.3-34.16,74.3-76.31S1555.27,380.78,1514.23,380.78Zm0,145.76c-37.35,0-67.63-31.09-67.63-69.45s30.28-69.44,67.63-69.44,67.62,31.09,67.62,69.44S1551.58,526.54,1514.23,526.54Z"/><path class="cls-5" d="M1506.49,385c-38.83,0-70.31,32.72-70.31,73.09s31.48,73.1,70.31,73.1,70.31-32.73,70.31-73.1S1545.32,385,1506.49,385Zm0,139.62c-35.34,0-64-29.79-64-66.53s28.65-66.52,64-66.52,64,29.78,64,66.52S1541.83,524.66,1506.49,524.66Z"/><path class="cls-10" d="M1507.38,381.16a76.31,76.31,0,1,0,76.31,76.31A76.32,76.32,0,0,0,1507.38,381.16Zm0,145.76a69.45,69.45,0,1,1,69.45-69.45A69.45,69.45,0,0,1,1507.38,526.92Z"/><polygon class="cls-14" points="1341.69 356.73 1284.16 455.07 1393.32 455.07 1473.96 361.15 1469.04 344.43 1341.69 356.73"/><line class="cls-14" x1="1324.97" y1="326.24" x2="1393.32" y2="455.07"/><line class="cls-14" x1="1473.96" y1="361.15" x2="1506.23" y2="456.23"/><path class="cls-14" d="M1469,344.43v-16.2h27.9s13.39,1.22,13.39,15.83S1495.41,359,1489.63,359"/><circle class="cls-15" cx="1394.3" cy="454.65" r="18.42"/><line class="cls-16" x1="1412.46" y1="454.58" x2="1376.14" y2="454.72"/><line class="cls-16" x1="1395.42" y1="436.53" x2="1393.19" y2="472.78"/><line class="cls-16" x1="1407.91" y1="442.62" x2="1380.7" y2="466.68"/><line class="cls-16" x1="1382.27" y1="441.05" x2="1406.33" y2="468.26"/><line class="cls-14" x1="1332.94" y1="371.14" x2="1228" y2="371.14"/><polyline class="cls-14" points="1248.24 371.75 1284.16 455.07 1288.01 371.75"/><rect class="cls-10" x="1229.11" y="321.29" width="71.51" height="47.34" rx="2.17"/><path class="cls-9" d="M1255.46,321.12s1.08-4.95,2.14-6.81c0,0,9.52,0,9.52,0"/><path class="cls-9" d="M1272.83,321.12s-1.08-4.95-2.14-6.81c0,0-9.53,0-9.53,0"/><path class="cls-17" d="M1339.31,319.7l-25.22-4.34s-8.9-1.45-8.9,6,13.86,5.37,13.86,5.37l27.3-1s2.68-.41,2.68-2.48S1339.31,319.7,1339.31,319.7Z"/><line class="cls-9" x1="1421.43" y1="474.74" x2="1394.78" y2="453.36"/><path class="cls-8" d="M1356.79,293.46l-9.15,41.27,8.11,25.17,16.47,18.2,42,93.19,3.27-.89s-8.45-83.65-12.35-95.35-29.12-56.43-29.12-56.43"/><path class="cls-18" d="M1358,274s-28,1.27-36.12,11.54c-7.2,9.12-12.29,31.21,8.37,55.27s38.63,35.79,38.63,35.79l15.17,31.25,23.43,55.81,10.35-1.68-7.91-64.83s-3.41-29.72-16.53-50.68c-8.92-14.24-15.64-27.12-15.64-27.12l14.79-4.58Z"/><path class="cls-5" d="M1414,475.75a13.79,13.79,0,0,1,1.74-1.51c.58,0,1.16,0,1.74,0h8.69a17.61,17.61,0,0,1,1.73,1.5,15.29,15.29,0,0,1-1.73,1.5h-8.69c-.58,0-1.16,0-1.74,0A13.13,13.13,0,0,1,1414,475.75Z"/><path class="cls-10" d="M1413.62,474c.06.8.11,1.31,1.46,1.31,2.14,0,13.69.14,13.69.14a2,2,0,0,0,2.28-2.28c0-2.57-6-1.57-7.84-3.14-1.62-1.37-3-4.67-3.35-5.51a.28.28,0,0,0-.29-.18l-3.07.23a.3.3,0,0,0-.24.42c.56,1.2,1.43,3.28.38,4.58,0,0-1.08,1.17-2.56-.26-1-1-1.71,1.29-.86,3a4.31,4.31,0,0,1,.4,1.69"/><path class="cls-11" d="M1413.59,473.6s-.26,1.68,1,1.71,14.52.19,14.52.19A1.92,1.92,0,0,0,1431,474Z"/><path class="cls-10" d="M1347.52,265.16s15.6,0,39.63-10.3,46.8-13.1,53-1.24,6.26,39.85-19,52.89c-20.08,10.38-37.18,12.31-37.18,12.31S1348.77,300.1,1347.52,265.16Z"/><path class="cls-19" d="M1437.61,241.33s-1.94,5.58-2.46,6.36-1.82,4.14,1.43,4.79,3.88-1.29,3.88-1.29l2.08-6.36Z"/><path class="cls-20" d="M1441.62,225.67s9.24-4.13,13.12-.48,4.11,7.23,3.36,12.15-2.36,5.71-2,8.1-4,2.48-4,2.48l-13.49-10.45Z"/><path class="cls-10" d="M1443.82,233.57s1.15-7.87,6-6.55,6.74,3.61,9.7,2c2.56-1.38,3.3-7.55,3.3-7.55s-7.27,1.23-12.27-2.63c-4.54-3.5-8.57-4.33-10.16-2.21s-2.82,6.6-2.82,6.6-3.55-1.67-5,4.23,0,8.29,1.58,11a9.28,9.28,0,0,0,5,4.37s-1.35,6.13,5.64,8.31,10.73,3.36,11.64.46a7.14,7.14,0,0,0-.37-5.22s-3.83-.8-3.27-2.61c.47-1.48,2.54,0,3.62-.38.25-.09.42-.52.52-.84s.43-1,.25-1.23a11.75,11.75,0,0,0-2.92-1.17s-3.48-1.11-4.14.68-2.9,2.59-3.56,1.18S1442.63,238.17,1443.82,233.57Z"/><path class="cls-21" d="M1440.58,240.17s2.32-4.87,1.1-6-2.84-1.16-3.26.18S1439.08,239.43,1440.58,240.17Z"/><path class="cls-22" d="M1496.94,328.31s13.4,1.22,13.4,15.84-14.92,14.92-20.71,14.92"/><path class="cls-23" d="M1481.14,354.06l5.93,3.23s4.31,8,8.6,6.57-1.65-7.6-1.65-7.6,3.64.33,2.81-1.16-6.44-.33-6.44-.33-1.69-2.41-4.23-6"/><path class="cls-1" d="M1438.59,254.56h0l.47-1-.65-.89h-1.27l-.65.89.48,1h.1l-3.51,35,4.26,7.44v0l4.25-7.44Z"/><path class="cls-11" d="M1464.77,319.57c-6.28-7.6-14.54-16-14.54-16l-11.78-29.81c-.21-1.6-1.1-8.4-2-12.45-3.24-15.27-18.5-11.23-18.5-11.23h0c-10,3.6-7.21,16.84-7.21,16.84,0,3,6.91,13.5,6.91,13.5l.36-.19c4.47,9.56,14.29,30.06,19.18,36.58,6.46,8.6,26.18,27.6,34.06,31.91l9.85,5.37,5-5.29C1480.11,340.21,1469.2,324.93,1464.77,319.57Z"/><polygon class="cls-10" points="1486.33 348.22 1487.07 349.4 1481.6 354.69 1480.39 354 1486.33 348.22"/><polygon class="cls-10" points="1496.57 341.87 1497.14 343.07 1491.26 347.41 1490.18 346.61 1496.57 341.87"/><polygon class="cls-24" points="1044.24 352.92 1040.07 377.23 1067.85 424.11 1037.3 489.39 1023.4 484.53 1035.56 424.11 1005.7 404.66 1024.1 343.55 1044.24 352.92"/><path class="cls-25" d="M1058.17,315.39l5.41,19.82a2.49,2.49,0,0,0,1.25,1.55l23,12A2.5,2.5,0,0,1,1089,352h0a2.5,2.5,0,0,1-2.79,1.47l-15.09-3a2.3,2.3,0,0,1-.43-.12l-19.16-7.53a2.49,2.49,0,0,1-1.56-2l-1.22-9a2.83,2.83,0,0,1,0-.65l1.85-14.44a2.51,2.51,0,0,1,1.26-1.86l2.52-1.42c1.2-1.09,1.16-6,3.54,1.23l.2.47C1058.11,315.19,1058.14,315.29,1058.17,315.39Z"/><path class="cls-26" d="M1001.14,404.62l22.05,56.89s3.52,14.7,24,14.7,30.69-27.17,35.16-41.87,10.55-31.32,30.69-38"/><line class="cls-26" x1="1122.54" y1="416.53" x2="1061.5" y2="490.24"/><ellipse class="cls-3" cx="1052.53" cy="565" rx="223.2" ry="6.67"/><path class="cls-5" d="M950.52,418.7C911,418.7,879,451.57,879,492.12s32,73.42,71.49,73.42,71.5-32.87,71.5-73.42S990,418.7,950.52,418.7Zm0,140.24c-35.93,0-65.06-29.92-65.06-66.82s29.13-66.82,65.06-66.82,65.07,29.92,65.07,66.82S986.46,558.94,950.52,558.94Z"/><path class="cls-4" d="M943.08,422.79c-37.36,0-67.65,31.49-67.65,70.33s30.29,70.33,67.65,70.33,67.65-31.49,67.65-70.33S980.44,422.79,943.08,422.79Zm0,134.33c-34,0-61.57-28.65-61.57-64s27.57-64,61.57-64,61.57,28.66,61.57,64S977.08,557.12,943.08,557.12Z"/><path class="cls-10" d="M943.94,419.06a73.42,73.42,0,1,0,73.42,73.42A73.42,73.42,0,0,0,943.94,419.06Zm0,140.24a66.82,66.82,0,1,1,66.82-66.82A66.82,66.82,0,0,1,943.94,559.3Z"/><path class="cls-5" d="M1174.36,418.7c-39.49,0-71.5,32.87-71.5,73.42s32,73.42,71.5,73.42,71.49-32.87,71.49-73.42S1213.84,418.7,1174.36,418.7Zm0,140.24c-35.94,0-65.07-29.92-65.07-66.82s29.13-66.82,65.07-66.82,65.06,29.92,65.06,66.82S1210.29,558.94,1174.36,558.94Z"/><path class="cls-4" d="M1166.91,422.79c-37.36,0-67.65,31.49-67.65,70.33s30.29,70.33,67.65,70.33,67.65-31.49,67.65-70.33S1204.28,422.79,1166.91,422.79Zm0,134.33c-34,0-61.57-28.65-61.57-64s27.57-64,61.57-64,61.57,28.66,61.57,64S1200.92,557.12,1166.91,557.12Z"/><path class="cls-10" d="M1167.77,419.06a73.42,73.42,0,1,0,73.42,73.42A73.42,73.42,0,0,0,1167.77,419.06Zm0,140.24a66.82,66.82,0,1,1,66.82-66.82A66.82,66.82,0,0,1,1167.77,559.3Z"/><line class="cls-26" x1="1023.19" y1="461.51" x2="1034.7" y2="489.96"/><path class="cls-5" d="M954.31,476.44l94.36,5.84s21,.59,21,20.74-16.36,20.46-26.59,18.41S949.63,501,949.63,501s-12.85-2.63-11.1-14.32S954.31,476.44,954.31,476.44Z"/><circle class="cls-1" cx="951.01" cy="488.4" r="9.03"/><circle class="cls-27" cx="950.91" cy="488.54" r="3.12"/><circle class="cls-1" cx="1053.17" cy="502.52" r="9.95"/><circle class="cls-27" cx="1053.06" cy="502.68" r="3.43"/><line class="cls-26" x1="950.95" y1="488.36" x2="1011.36" y2="431.47"/><line class="cls-28" x1="1053.06" y1="502.68" x2="1072.67" y2="525.73"/><path class="cls-29" d="M1071.63,526.4a12.56,12.56,0,0,1,1.69-1c.57,0,1.13,0,1.7,0h8.47a15,15,0,0,1,1.69,1,16.6,16.6,0,0,1-1.69,1H1075c-.57,0-1.13,0-1.7,0A12.56,12.56,0,0,1,1071.63,526.4Z"/><path class="cls-30" d="M999.37,337.64S978.73,359.71,978,372.53s-3.56,31.32,39.86,39.86,39.87,9.26,39.87,9.26l12.74,98.56,2.79.82s17.92-68.06,14.36-98-2.84-28.48-13.52-33.46-44.85-19.93-44.85-19.93l2.85-17.8Z"/><path class="cls-10" d="M998.25,330.6c-2.25,4.88-4,8.46-4,8.46h0c-6.36,7.26-18.32,22.22-18.94,32.9-1.05,17.83-2.17,29.85,50.59,46.93L1060.27,381l-16.66-7a2.88,2.88,0,0,1-1.75-2.8l.74-13.64c.31-1.15,1.27-4.8,2.43-9.67"/><path class="cls-10" d="M1013.47,266.12s-31.44-9.2-30.67,18.4,40.23,15,57.5,9.2S1067,280.24,1067.14,270c.12-8.06-5.18-9.6-6.84-9.65a.63.63,0,0,1-.6-.77c.41-2,0-6.62-5.6-8.58-6.4-2.24-10.38,2.55-11.68,5.07a1.29,1.29,0,0,1-1.8.5c-2.82-1.72-10.09-5.46-16.42-3C1016.15,256.53,1013.47,266.12,1013.47,266.12Z"/><path class="cls-12" d="M1044.85,291.86s7.16,5.74,10.26,12.92c3,6.93,2.85,8.37,2.85,8.37l-7.6,2.28Z"/><path class="cls-31" d="M990.85,331.17s16.37-15.72,18.61-24.06,7.38-26.95,25.35-22.46,17.64,15.4,17.32,29.51-7.7,42.67-8,43.64S995.35,340.79,990.85,331.17Z"/><path class="cls-32" d="M1040.63,259.39s10.85-3.89,14.93.58,4.47,8.69,2.76,14.09-1.39,8.18-3,9a8.51,8.51,0,0,1-6.73.41l-2.16-1a16.78,16.78,0,0,1-8.46-8.62h0Z"/><path class="cls-10" d="M1056.28,255.51l-7.07,2,0,0L1037.85,259l-3.8,14.28s8.24,3.12,13.57-4a21.19,21.19,0,0,0,4.31-9.42c1.41-1.66,4.11.64,4.11.64Z"/><path class="cls-31" d="M1070.39,524.18c.07.78.12,1.27,1.43,1.27,2.08,0,13.35,0,13.35,0a2,2,0,0,0,2.21-2.24c0-2.51-5.85-1.49-7.67-3-1.58-1.32-3-4.54-3.3-5.35a.26.26,0,0,0-.29-.17l-3,.24a.29.29,0,0,0-.24.41c.56,1.17,1.42,3.19.4,4.46,0,0-1,1.15-2.5-.23-1-.94-1.66,1.26-.81,2.93a4.24,4.24,0,0,1,.4,1.64"/><path class="cls-12" d="M1070.36,523.75s-.25,1.64,1,1.67,14.16.08,14.16.08a1.86,1.86,0,0,0,1.79-1.44Z"/><path class="cls-33" d="M1045.33,280.54l-5.61-4s-2.22,6.35-2.81,7.23h0a4.56,4.56,0,0,1-1.8,1.6,2.41,2.41,0,0,0-1.29,2.93c.66,3.13,8.13,6.9,8.28,13.34,0,0,3.88-10.31.87-13.89Z"/><path class="cls-26" d="M1096.13,349.87s15-2.15,16.33,5.58-7.73,12.68-7.73,12.68l5.72,14.75,27.14,68.28a47.6,47.6,0,0,0,9.11,14.55l21.6,23.61"/><line class="cls-34" x1="1069.7" y1="357.17" x2="1096.13" y2="349.87"/><path class="cls-35" d="M1082.11,356.51a3.32,3.32,0,0,0-.46-5.25,10,10,0,0,0-5.55-1.62c-5.14,0-42.77-15.21-42.77-15.21l1.7-18-15-5.57s-6.8,25.29-2.05,35,43.72,7.79,53.22,7.41,7.26,4.6,7.26,4.6A6.45,6.45,0,0,0,1082.11,356.51Z"/><path class="cls-12" d="M1019.45,312.58s2.29-19.2,11.6-17.87S1036,317.9,1036,317.9,1025.54,317.33,1019.45,312.58Z"/><path class="cls-36" d="M1523.85,412c1.82,1.83-1.6,5.23.22,7s5.24-1.57,7,.26-1.59,5.22.22,7,5.24-1.57,7.05.26-1.59,5.22.22,7,5.24-1.57,7.05.26-1.59,5.22.23,7,5.24-1.56,7.06.27"/><path class="cls-36" d="M907.15,510.57c1.82,1.83-1.6,5.23.22,7.06s5.23-1.57,7,.25-1.6,5.23.22,7.06,5.24-1.58,7.05.25-1.6,5.23.22,7,5.24-1.57,7.05.26-1.59,5.23.23,7.06,5.24-1.57,7.06.26"/><path class="cls-37" d="M1089.1,454.83c.73-.89,2.92.91,3.65,0s-1.46-2.68-.74-3.57,2.92.91,3.65,0-1.47-2.68-.74-3.57,2.92.91,3.65,0-1.47-2.69-.74-3.58,2.92.91,3.65,0-1.47-2.69-.74-3.57,2.92.91,3.65,0-1.46-2.69-.73-3.58,2.92.91,3.65,0"/><path class="cls-37" d="M1013.36,431.82c.4,1.07-2.25,2.07-1.85,3.14s3.06.08,3.46,1.16-2.25,2.06-1.85,3.14,3,.08,3.46,1.15-2.26,2.07-1.86,3.14,3.06.08,3.46,1.16-2.25,2.06-1.85,3.14,3.06.08,3.46,1.16-2.25,2.07-1.85,3.14,3.06.08,3.46,1.16-2.25,2.07-1.84,3.15"/><path class="cls-37" d="M1357.21,383.72c.54,1-2,2.33-1.44,3.35s3-.3,3.57.72-2,2.33-1.44,3.34,3-.3,3.57.72-2,2.33-1.45,3.34,3-.3,3.58.72-2,2.33-1.45,3.35,3-.3,3.58.72-2,2.33-1.45,3.35,3-.3,3.58.72-2,2.33-1.44,3.35"/></svg>