<svg xmlns="http://www.w3.org/2000/svg" xmlns:xlink="http://www.w3.org/1999/xlink" viewBox="0 0 1417.32 859.54"><defs><style>.cls-1{fill:#fff;}.cls-2{fill:#dae4f4;}.cls-3{fill:#b7c8e7;}.cls-4{fill:#f1f2f2;}.cls-5{fill:#879ed1;}.cls-6{fill:#203061;}.cls-7{fill:#121740;}.cls-11,.cls-13,.cls-15,.cls-22,.cls-24,.cls-26,.cls-29,.cls-30,.cls-31,.cls-37,.cls-8{fill:none;}.cls-24,.cls-8{stroke:#f1ba1c;}.cls-11,.cls-13,.cls-15,.cls-22,.cls-24,.cls-26,.cls-31,.cls-37,.cls-8{stroke-linecap:round;stroke-linejoin:round;}.cls-15,.cls-26,.cls-29,.cls-8{stroke-width:3px;}.cls-9{fill:url(#New_Gradient_Swatch_6);}.cls-10{fill:url(#New_Gradient_Swatch_6-2);}.cls-11,.cls-26,.cls-31{stroke:#879ed1;}.cls-11,.cls-13{stroke-width:5px;}.cls-12{fill:#2d3f72;}.cls-13{stroke:#8792c9;}.cls-14{fill:#131724;}.cls-15{stroke:#b9cee2;}.cls-16{fill:#5756a0;}.cls-17{fill:url(#New_Gradient_Swatch_6-3);}.cls-18{fill:#e2b026;}.cls-19{fill:#e9b820;}.cls-20{fill:url(#New_Gradient_Swatch_6-4);}.cls-21{fill:url(#linear-gradient);}.cls-22,.cls-29,.cls-30{stroke:#2d3f72;}.cls-22,.cls-37{stroke-width:6px;}.cls-23{fill:url(#New_Gradient_Swatch_6-5);}.cls-25{fill:#f58774;}.cls-27{fill:#28375e;}.cls-28{fill:url(#linear-gradient-2);}.cls-29,.cls-30{stroke-miterlimit:10;}.cls-30,.cls-31{stroke-width:2px;}.cls-32{fill:#54539d;}.cls-33{fill:#f1ba1c;}.cls-34{fill:url(#linear-gradient-3);}.cls-35{fill:url(#linear-gradient-4);}.cls-36{fill:url(#linear-gradient-5);}.cls-37{stroke:#28375e;}.cls-38{fill:url(#linear-gradient-6);}</style><linearGradient id="New_Gradient_Swatch_6" x1="471.05" y1="697.19" x2="471.05" y2="529.35" gradientUnits="userSpaceOnUse"><stop offset="0" stop-color="#a0716d"/><stop offset="1" stop-color="#e6a58f"/></linearGradient><linearGradient id="New_Gradient_Swatch_6-2" x1="371.37" y1="512.54" x2="417.95" y2="512.54" xlink:href="#New_Gradient_Swatch_6"/><linearGradient id="New_Gradient_Swatch_6-3" x1="289.68" y1="624.44" x2="416.74" y2="624.44" xlink:href="#New_Gradient_Swatch_6"/><linearGradient id="New_Gradient_Swatch_6-4" x1="446.62" y1="565.45" x2="469.4" y2="556.37" gradientTransform="translate(153.48 -248.48) rotate(21.73)" xlink:href="#New_Gradient_Swatch_6"/><linearGradient id="linear-gradient" x1="360.84" y1="477.51" x2="360.84" y2="448.62" gradientUnits="userSpaceOnUse"><stop offset="0" stop-color="#a0716d"/><stop offset="1" stop-color="#bc857b"/></linearGradient><linearGradient id="New_Gradient_Swatch_6-5" x1="334.04" y1="515.13" x2="411.08" y2="515.13" xlink:href="#New_Gradient_Swatch_6"/><linearGradient id="linear-gradient-2" x1="889.81" y1="543.72" x2="889.81" y2="525" gradientUnits="userSpaceOnUse"><stop offset="0" stop-color="#f58a76"/><stop offset="1" stop-color="#e08e76"/></linearGradient><linearGradient id="linear-gradient-3" x1="819.97" y1="421.06" x2="819.97" y2="408.08" gradientUnits="userSpaceOnUse"><stop offset="0" stop-color="#f58a76"/><stop offset="1" stop-color="#e6a58f"/></linearGradient><linearGradient id="linear-gradient-4" x1="839.31" y1="309.4" x2="862.15" y2="309.4" gradientTransform="matrix(0.95, 0.3, -0.3, 0.95, 112.59, -148.48)" xlink:href="#linear-gradient-3"/><linearGradient id="linear-gradient-5" x1="838.76" y1="314.34" x2="843.36" y2="314.34" gradientTransform="matrix(0.95, 0.3, -0.3, 0.95, 112.59, -148.48)" xlink:href="#linear-gradient-3"/><linearGradient id="linear-gradient-6" x1="878.31" y1="549.29" x2="878.31" y2="531.72" xlink:href="#linear-gradient-3"/></defs><title>image_01</title><g id="Layer_1" data-name="Layer 1"><rect class="cls-1" width="1417.32" height="777.19"/><path class="cls-2" d="M123.17,483.54s-10.84.7-10.84,9.09,4.54,10.84,10.14,10.84H224.21s16.08.35,16.08-14S219.42,478,219.42,478s-7.73,2.18-7.73,4.16,1-4.36-3.37-7.72a8.54,8.54,0,0,0-8.72-1.19s-3.17-16.45-19.41-16.45-21.8,10.7-21.6,16.25c0,0-2.18-2.18-6.54-.6a6.45,6.45,0,0,0-4.55,5.35s-5.55-7.13-13.28-5.35S123.17,483.54,123.17,483.54Z" transform="translate(113.39 3.65)"/><path class="cls-3" d="M788.62,474.84s-10.83.7-10.83,9.09,4.54,10.84,10.14,10.84H889.67s16.08.35,16.08-14-20.87-11.51-20.87-11.51-7.73,2.18-7.73,4.17,1-4.36-3.37-7.73a8.54,8.54,0,0,0-8.72-1.19s-3.17-16.45-19.41-16.45-21.8,10.7-21.6,16.25c0,0-2.18-2.18-6.54-.59a6.46,6.46,0,0,0-4.56,5.35s-5.54-7.14-13.27-5.35S788.62,474.84,788.62,474.84Z" transform="translate(113.39 3.65)"/><polyline class="cls-4" points="221.98 709.95 221.98 272.14 385.97 268.74 395.45 582.56 467.11 586.93 454.96 105.21 595.7 175.89 595.7 338.24 703.49 338.24 729.21 553.39 790.94 557.1 762.33 118.69 915.1 118.69 932.13 548.04 1040.16 544.44 1035.48 356.54 1195.36 351.22 1214.77 751.06 237.13 718.8"/><polygon class="cls-2" points="108.05 787.08 108.05 484.33 268.69 484.33 268.69 737.65 301.55 721.18 292.55 554.35 447.8 560.53 447.8 706.76 600.8 704.7 591.8 591.42 742.55 581.13 742.55 410.18 911.3 399.88 911.3 700.58 960.8 702.64 960.8 399.88 999.05 399.88 999.05 276.31 1032.8 261.89 1032.8 113.61 1057.55 113.61 1057.55 257.77 1095.8 270.13 1095.8 391.65 1156.54 395.76 1156.54 698.52 1190.29 710.4 1190.29 511.1 1287.04 517.28 1299.56 841.01 108.05 844.25 108.05 787.08"/><rect class="cls-3" y="682.13" width="1417.32" height="29.11"/><path class="cls-5" d="M99.64,503.37a44.16,44.16,0,0,0-1-5.59l-10.13,1.88C93,512,92.25,532.59,82,537s-17.64-25.89-17.64-25.89l-8.68,7.15s9.23,1.65,6.49,43S51.92,696.64,51.92,696.64s0,4.1,16.06,3.76S81,696,81,696s-8.25-53.62-9.56-91a90.39,90.39,0,0,1,10.77-46L92.6,539.57A61.2,61.2,0,0,0,99.64,503.37Z" transform="translate(113.39 3.65)"/><circle class="cls-6" cx="172.9" cy="417.79" r="54.09"/><path class="cls-6" d="M-3.51,395.18s11.65-1.16,24-18.3,27,25.82,27,25.82l-28.17,37Z" transform="translate(113.39 3.65)"/><path class="cls-6" d="M124.81,380s-11.12,3.7-29.4-6.92-14.14,34.58-14.14,34.58L122.06,430Z" transform="translate(113.39 3.65)"/><path class="cls-6" d="M930.14,708.65s-3-39.59-5.57-43.24,7.43,4.87,13.24,42.33" transform="translate(113.39 3.65)"/><path class="cls-6" d="M950.34,708s-3-19.18-1.62-28.93a168.9,168.9,0,0,1,4.41-20.1s-9.29,13.1-10.91,29.24,0,20.1,0,20.1" transform="translate(113.39 3.65)"/><path class="cls-6" d="M929.18,708.28s-5.62-8-11.69-10.5-14-3.14-14-3.14,9.21,3.14,12.62,7.24,3.77,6.52,3.77,6.52" transform="translate(113.39 3.65)"/><path class="cls-6" d="M955.15,708.53s1.11-9.55,6.63-16.55,9.49-9.91,9.49-9.91-20.72,5.56-25.79,26.33" transform="translate(113.39 3.65)"/><path class="cls-6" d="M926.6,708.28s-5-16.3-11.14-23.19a34.75,34.75,0,0,0-14.27-9.3s9.76,6.28,15.65,20.29c2.58,6.14,4.42,12.2,4.42,12.2" transform="translate(113.39 3.65)"/><path class="cls-6" d="M940.05,708.4s-.18-26.93-3.68-39.61a137.23,137.23,0,0,0-6.91-19.93s3.13,15.7,3.22,28.74-1.75,30.32-1.75,30.32" transform="translate(113.39 3.65)"/><path class="cls-6" d="M923.93,708s.37-19-4.42-30.19a154.08,154.08,0,0,0-10.31-19.93s10.87,5.55,16.76,25,5.89,25.48,5.89,25.48" transform="translate(113.39 3.65)"/><path class="cls-6" d="M944.38,708s6.17-23.31,11.79-30.31a93.75,93.75,0,0,1,10.49-11.24,39.73,39.73,0,0,0-20.9,17,77,77,0,0,0-9.49,24.76" transform="translate(113.39 3.65)"/><path class="cls-3" d="M1091.15,433s-7.9.51-7.9,6.63,3.31,7.9,7.39,7.9h74.18s11.73.26,11.73-10.2-15.22-8.38-15.22-8.38-5.63,1.59-5.63,3,.72-3.18-2.46-5.63a6.23,6.23,0,0,0-6.36-.87s-2.31-12-14.15-12-15.89,7.8-15.75,11.85c0,0-1.59-1.59-4.77-.44a4.73,4.73,0,0,0-3.32,3.9s-4-5.2-9.68-3.9S1091.15,433,1091.15,433Z" transform="translate(113.39 3.65)"/><path class="cls-5" d="M-81.44,100.56s-20.13,1.3-20.13,16.89,8.44,20.13,18.83,20.13h189s29.87.65,29.87-26S97.36,90.24,97.36,90.24,83,94.28,83,98s1.85-8.09-6.25-14.35a15.87,15.87,0,0,0-16.2-2.21S54.66,50.85,24.48,50.85-16,70.73-15.63,81c0,0-4-4-12.15-1.1s-8.46,9.94-8.46,9.94S-46.55,76.62-60.9,79.93-81.44,100.56-81.44,100.56Z" transform="translate(113.39 3.65)"/><path class="cls-5" d="M1213.46,226.59v0s-11.62,2.56-29.7-8.18a14.9,14.9,0,0,0-1.72-.89,61.54,61.54,0,0,0-72.41-3,11,11,0,0,0-1.87,1.37,50.58,50.58,0,0,0-7.06,6.47c-10.56,8.17-19.33,7.88-20.25,7.82q-5.18-2.25-10.22-4.93l-1.92-1c-64.44-34.58-161.89,77-136.74,160.32s106.88,125.74,172.89,66,106.88,1.57,150.89-51.87C1292.8,353.18,1314.31,206.49,1213.46,226.59Z" transform="translate(113.39 3.65)"/><path class="cls-6" d="M1189.2,421.3l-9-.28s2,17-9.62,17-7.54-16.22-7.54-16.22l-13.8,2.55c6,16.75,5,44.84-8.91,50.89s-24-35.24-24-35.24l-11.82,9.74s12.57,2.24,8.84,58.54-14,184.27-14,184.27,0,5.58,21.87,5.12,17.69-6.05,17.69-6.05-19.55-127-11.17-162.86S1195.72,459.92,1189.2,421.3Z" transform="translate(113.39 3.65)"/><path class="cls-7" d="M54.27,708.65s-6.77-88.72-12.49-96.91,16.65,10.92,29.66,94.86" transform="translate(113.39 3.65)"/><path class="cls-7" d="M99.54,707.29s-6.76-43-3.64-64.84,9.89-45.05,9.89-45.05S85,626.75,81.33,662.92s0,45.05,0,45.05" transform="translate(113.39 3.65)"/><path class="cls-7" d="M52.11,707.83S39.52,690,25.9,684.28s-31.37-7-31.37-7,20.64,7,28.27,16.24,8.47,14.62,8.47,14.62" transform="translate(113.39 3.65)"/><path class="cls-7" d="M110.32,708.37s2.47-21.39,14.86-37.09,21.26-22.19,21.26-22.19-46.44,12.45-57.79,59" transform="translate(113.39 3.65)"/><path class="cls-7" d="M46.33,707.83s-11.14-36.55-25-52a77.74,77.74,0,0,0-32-20.84s21.88,14.08,35.09,45.48c5.78,13.74,9.9,27.34,9.9,27.34" transform="translate(113.39 3.65)"/><path class="cls-7" d="M76.47,708.1s-.41-60.37-8.26-88.79-15.48-44.67-15.48-44.67,7,35.2,7.23,64.43S56,707,56,707" transform="translate(113.39 3.65)"/><path class="cls-7" d="M40.35,707.29s.82-42.5-9.91-67.68A345.62,345.62,0,0,0,7.33,595s24.35,12.45,37.56,56S58.1,708.1,58.1,708.1" transform="translate(113.39 3.65)"/><path class="cls-7" d="M86.17,707.29S100,655,112.59,639.34a210.46,210.46,0,0,1,23.53-25.17s-29.52,8.66-46.86,38.16S68,707.83,68,707.83" transform="translate(113.39 3.65)"/><path class="cls-6" d="M99.18,708.65s-3.69-48.4-6.82-52.87,9.09,6,16.18,51.75" transform="translate(113.39 3.65)"/><path class="cls-6" d="M123.87,707.91s-3.69-23.46-2-35.37A206.39,206.39,0,0,1,127.28,648s-11.35,16-13.34,35.75,0,24.57,0,24.57" transform="translate(113.39 3.65)"/><path class="cls-6" d="M98,708.2s-6.87-9.74-14.3-12.85-17.11-3.84-17.11-3.84,11.26,3.84,15.42,8.87,4.62,8,4.62,8" transform="translate(113.39 3.65)"/><path class="cls-6" d="M129.75,708.5s1.35-11.67,8.11-20.23,11.6-12.11,11.6-12.11-25.34,6.79-31.53,32.19" transform="translate(113.39 3.65)"/><path class="cls-6" d="M94.85,708.2s-6.08-19.93-13.63-28.35a42.36,42.36,0,0,0-17.45-11.37s11.94,7.68,19.14,24.81c3.16,7.49,5.41,14.91,5.41,14.91" transform="translate(113.39 3.65)"/><path class="cls-6" d="M111.29,708.35s-.23-32.93-4.51-48.44a168.49,168.49,0,0,0-8.44-24.36s3.83,19.19,3.94,35.14-2.14,37.07-2.14,37.07" transform="translate(113.39 3.65)"/><path class="cls-6" d="M91.58,707.91S92,684.72,86.18,671a188.93,188.93,0,0,0-12.61-24.37s13.28,6.79,20.49,30.57,7.21,31.16,7.21,31.16" transform="translate(113.39 3.65)"/><path class="cls-6" d="M116.58,707.91s7.54-28.5,14.41-37.07a114.24,114.24,0,0,1,12.84-13.73,48.5,48.5,0,0,0-25.56,20.82,94.14,94.14,0,0,0-11.6,30.27" transform="translate(113.39 3.65)"/><path class="cls-7" d="M1124.09,708.22s-5.62-73.67-10.37-80.47,13.82,9.07,24.63,78.77" transform="translate(113.39 3.65)"/><path class="cls-7" d="M1161.68,707.09s-5.62-35.71-3-53.84a316.52,316.52,0,0,1,8.21-37.4s-17.28,24.37-20.3,54.4,0,37.4,0,37.4" transform="translate(113.39 3.65)"/><path class="cls-7" d="M1122.3,707.54s-10.45-14.84-21.76-19.56-26-5.84-26-5.84,17.13,5.84,23.47,13.48,7,12.14,7,12.14" transform="translate(113.39 3.65)"/><path class="cls-7" d="M1170.63,708s2-17.75,12.34-30.79,17.65-18.43,17.65-18.43-38.56,10.34-48,49" transform="translate(113.39 3.65)"/><path class="cls-7" d="M1117.5,707.54s-9.25-30.35-20.74-43.16a64.6,64.6,0,0,0-26.56-17.31s18.17,11.69,29.14,37.76c4.8,11.42,8.22,22.71,8.22,22.71" transform="translate(113.39 3.65)"/><path class="cls-7" d="M1142.52,707.76s-.34-50.12-6.85-73.72S1122.81,597,1122.81,597s5.83,29.22,6,53.5-3.25,56.41-3.25,56.41" transform="translate(113.39 3.65)"/><path class="cls-7" d="M1112.53,707.09s.69-35.29-8.22-56.19a287.28,287.28,0,0,0-19.2-37.09s20.22,10.34,31.19,46.53,11,47.42,11,47.42" transform="translate(113.39 3.65)"/><path class="cls-7" d="M1150.58,707.09s11.48-43.38,21.93-56.42a174.9,174.9,0,0,1,19.54-20.9,73.82,73.82,0,0,0-38.9,31.69c-14.4,24.5-17.65,46.08-17.65,46.08" transform="translate(113.39 3.65)"/><path class="cls-7" d="M1090.36,708.22s-1.86-24.47-3.44-26.73,4.59,3,8.18,26.16" transform="translate(113.39 3.65)"/><path class="cls-7" d="M1102.85,707.84s-1.87-11.85-1-17.88a104,104,0,0,1,2.73-12.42,42.41,42.41,0,0,0-6.75,18.07c-1,10,0,12.42,0,12.42" transform="translate(113.39 3.65)"/><path class="cls-7" d="M1089.77,708s-3.47-4.92-7.23-6.49a32.85,32.85,0,0,0-8.65-1.94s5.69,1.94,7.8,4.48,2.33,4,2.33,4" transform="translate(113.39 3.65)"/><path class="cls-7" d="M1105.82,708.14a22.91,22.91,0,0,1,4.1-10.23,34.56,34.56,0,0,1,5.86-6.12s-12.81,3.44-15.94,16.28" transform="translate(113.39 3.65)"/><path class="cls-7" d="M1088.17,708s-3.07-10.08-6.88-14.33a21.44,21.44,0,0,0-8.83-5.75,29,29,0,0,1,9.68,12.54c1.59,3.79,2.73,7.54,2.73,7.54" transform="translate(113.39 3.65)"/><path class="cls-7" d="M1096.48,708.07s-.11-16.65-2.27-24.49a85.85,85.85,0,0,0-4.27-12.32,113.08,113.08,0,0,1,2,17.77c.06,8.06-1.08,18.74-1.08,18.74" transform="translate(113.39 3.65)"/><path class="cls-7" d="M1086.52,707.84s.23-11.72-2.73-18.66a96,96,0,0,0-6.37-12.32s6.71,3.44,10.36,15.46,3.64,15.75,3.64,15.75" transform="translate(113.39 3.65)"/><path class="cls-7" d="M1099.16,707.84s3.81-14.4,7.28-18.73a59.34,59.34,0,0,1,6.49-7A24.53,24.53,0,0,0,1100,692.69a47.59,47.59,0,0,0-5.86,15.3" transform="translate(113.39 3.65)"/><path class="cls-6" d="M112.35,383.8C83,394.6,57.47,417.23,29.88,402.54l-1.41-.75c-47.33-25.4-95,24.85-87.49,62.88C-46.66,527.37,7.16,564,55.65,520.11s78.5,1.16,110.83-38.1C195.79,446.43,204.27,350,112.35,383.8Z" transform="translate(113.39 3.65)"/></g><g id="Layer_3" data-name="Layer 3"><path class="cls-8" d="M923.24,598.36c1.81,1.83-1.6,5.23.21,7.06s5.24-1.57,7.06.25-1.6,5.23.22,7.06,5.23-1.58,7,.25-1.6,5.23.22,7,5.23-1.57,7,.26-1.6,5.23.22,7.06,5.24-1.57,7.06.26" transform="translate(113.39 3.65)"/><rect class="cls-2" y="710.76" width="1417.32" height="148.79"/><rect class="cls-3" y="724.45" width="1417.32" height="5.98"/><polygon class="cls-9" points="479.64 540.14 474.84 568.12 506.81 622.06 471.65 697.19 455.66 691.6 469.65 622.06 435.28 599.68 456.46 529.35 479.64 540.14"/><path class="cls-10" d="M382.28,493.3l6.23,22.81A2.87,2.87,0,0,0,390,517.9l26.45,13.81a2.87,2.87,0,0,1,1.31,3.68h0a2.88,2.88,0,0,1-3.2,1.69l-17.37-3.43a4.58,4.58,0,0,1-.49-.15l-22-8.66a2.89,2.89,0,0,1-1.8-2.3l-1.41-10.4a3.14,3.14,0,0,1,0-.75l2.13-16.61a2.88,2.88,0,0,1,1.44-2.14l2.91-1.64c1.38-1.25,1.33-6.95,4.07,1.42l.23.54C382.21,493.07,382.25,493.19,382.28,493.3Z" transform="translate(113.39 3.65)"/><path class="cls-11" d="M316.65,596,342,661.46s4.05,16.92,27.59,16.92,35.31-31.26,40.46-48.18,12.14-36.05,35.31-43.78" transform="translate(113.39 3.65)"/><line class="cls-11" x1="569.75" y1="613.35" x2="499.51" y2="698.18"/><ellipse class="cls-3" cx="489.18" cy="784.21" rx="256.87" ry="7.68"/><path class="cls-5" d="M258.4,612.19c-45.44,0-82.28,37.83-82.28,84.5S213,781.18,258.4,781.18s82.28-37.83,82.28-84.49S303.84,612.19,258.4,612.19Zm0,161.4c-41.35,0-74.88-34.43-74.88-76.9s33.53-76.9,74.88-76.9,74.88,34.43,74.88,76.9S299.76,773.59,258.4,773.59Z" transform="translate(113.39 3.65)"/><path class="cls-7" d="M249.83,616.9c-43,0-77.85,36.24-77.85,80.94s34.86,80.94,77.85,80.94,77.86-36.24,77.86-80.94S292.83,616.9,249.83,616.9Zm0,154.6c-39.13,0-70.85-33-70.85-73.66s31.72-73.66,70.85-73.66,70.86,33,70.86,73.66S289,771.5,249.83,771.5Z" transform="translate(113.39 3.65)"/><path class="cls-12" d="M250.82,612.61a84.5,84.5,0,1,0,84.5,84.5A84.5,84.5,0,0,0,250.82,612.61Zm0,161.39a76.9,76.9,0,1,1,76.9-76.89A76.89,76.89,0,0,1,250.82,774Z" transform="translate(113.39 3.65)"/><path class="cls-5" d="M516,612.19c-45.44,0-82.27,37.83-82.27,84.5s36.83,84.49,82.27,84.49,82.28-37.83,82.28-84.49S561.44,612.19,516,612.19Zm0,161.4c-41.35,0-74.88-34.43-74.88-76.9s33.53-76.9,74.88-76.9,74.89,34.43,74.89,76.9S557.35,773.59,516,773.59Z" transform="translate(113.39 3.65)"/><path class="cls-7" d="M507.43,616.9c-43,0-77.86,36.24-77.86,80.94s34.86,80.94,77.86,80.94,77.85-36.24,77.85-80.94S550.43,616.9,507.43,616.9Zm0,154.6c-39.13,0-70.86-33-70.86-73.66s31.73-73.66,70.86-73.66,70.85,33,70.85,73.66S546.56,771.5,507.43,771.5Z" transform="translate(113.39 3.65)"/><path class="cls-12" d="M508.42,612.61a84.5,84.5,0,1,0,84.49,84.5A84.5,84.5,0,0,0,508.42,612.61Zm0,161.39a76.9,76.9,0,1,1,76.9-76.89A76.89,76.89,0,0,1,508.42,774Z" transform="translate(113.39 3.65)"/><line class="cls-13" x1="455.41" y1="665.11" x2="468.66" y2="697.85"/><path class="cls-5" d="M262.76,678.64l108.59,6.73s24.21.67,24.21,23.87-18.83,23.53-30.6,21.18-107.58-23.53-107.58-23.53-14.8-3-12.78-16.48S262.76,678.64,262.76,678.64Z" transform="translate(113.39 3.65)"/><circle class="cls-1" cx="372.35" cy="696.05" r="10.4"/><circle class="cls-14" cx="372.24" cy="696.22" r="3.59"/><circle class="cls-1" cx="489.91" cy="712.31" r="11.45"/><circle class="cls-14" cx="489.79" cy="712.49" r="3.95"/><line class="cls-11" x1="372.28" y1="696.01" x2="441.8" y2="630.53"/><line class="cls-15" x1="489.79" y1="712.49" x2="512.35" y2="739.01"/><path class="cls-16" d="M397.77,736.14a15.1,15.1,0,0,1,2-1c.65,0,1.3,0,1.95,0h9.75a18,18,0,0,1,1.95,1,20,20,0,0,1-1.95,1h-9.75c-.65,0-1.3,0-1.95,0A15.1,15.1,0,0,1,397.77,736.14Z" transform="translate(113.39 3.65)"/><path class="cls-17" d="M314.62,518.91s-23.76,25.4-24.58,40.15-4.1,36,45.88,45.88,45.88,10.65,45.88,10.65L396.47,729l3.2,1s20.63-78.33,16.53-112.74-3.27-32.77-15.56-38.5S349,555.78,349,555.78l3.27-20.48Z" transform="translate(113.39 3.65)"/><path class="cls-12" d="M313.32,510.8c-2.58,5.62-4.55,9.74-4.55,9.74v0c-7.32,8.35-21.08,25.56-21.8,37.86-1.2,20.52-2.49,34.35,58.23,54l39.49-43.61-19.17-8.08a3.3,3.3,0,0,1-2-3.22l.84-15.7c.37-1.32,1.47-5.52,2.8-11.13" transform="translate(113.39 3.65)"/><path class="cls-12" d="M330.84,436.6s-36.18-10.59-35.3,21.18,46.31,17.28,66.18,10.59,30.72-15.52,30.89-27.36c.13-9.28-6-11.05-7.88-11.11A.72.72,0,0,1,384,429c.47-2.3,0-7.62-6.43-9.88-7.38-2.58-12,2.94-13.45,5.83a1.47,1.47,0,0,1-2.07.58c-3.25-2-11.62-6.28-18.9-3.51C333.93,425.57,330.84,436.6,330.84,436.6Z" transform="translate(113.39 3.65)"/><path class="cls-18" d="M367,466.22s8.24,6.62,11.81,14.88c3.44,8,3.28,9.62,3.28,9.62l-8.75,2.63Z" transform="translate(113.39 3.65)"/><path class="cls-19" d="M304.82,511.46s18.83-18.09,21.41-27.69,8.49-31,29.17-25.85,20.31,17.73,19.94,34-8.86,49.11-9.23,50.22S310,522.54,304.82,511.46Z" transform="translate(113.39 3.65)"/><path class="cls-20" d="M362.1,428.85s12.48-4.47,17.18.68,5.14,10,3.18,16.22c-1.9,6-1.6,9.41-3.46,10.38-1.29.67-4.8,1.8-7.75.47l-2.48-1.11a19.32,19.32,0,0,1-9.74-9.92h0Z" transform="translate(113.39 3.65)"/><path class="cls-12" d="M380.11,424.39,372,426.65v.06l-13.09,1.67-4.37,16.44s9.48,3.6,15.62-4.63c3.43-4.59,4.59-8.38,5-10.84,1.63-1.91,4.73.74,4.73.74Z" transform="translate(113.39 3.65)"/><path class="cls-19" d="M396.35,733.59c.07.89.13,1.46,1.64,1.45,2.4,0,15.36.06,15.36.06a2.28,2.28,0,0,0,2.55-2.58c0-2.88-6.74-1.71-8.83-3.46-1.82-1.52-3.41-5.22-3.79-6.16a.34.34,0,0,0-.33-.2l-3.44.29a.33.33,0,0,0-.27.47c.64,1.34,1.63,3.67.46,5.13,0,0-1.2,1.32-2.88-.26-1.14-1.08-1.91,1.45-.93,3.36a5,5,0,0,1,.46,1.9" transform="translate(113.39 3.65)"/><path class="cls-18" d="M396.31,733.09S396,735,397.43,735s16.29.1,16.29.1a2.17,2.17,0,0,0,2.07-1.66Z" transform="translate(113.39 3.65)"/><path class="cls-21" d="M367.51,453.2l-6.46-4.58s-2.55,7.3-3.23,8.32h0a5.27,5.27,0,0,1-2.07,1.85,2.74,2.74,0,0,0-1.48,3.36c.75,3.61,9.35,7.94,9.52,15.35,0,0,4.46-11.85,1-16Z" transform="translate(113.39 3.65)"/><path class="cls-11" d="M426,533s17.31-2.47,18.8,6.43S435.86,554,435.86,554l6.59,17,31.23,78.58a55,55,0,0,0,10.49,16.74L509,693.47" transform="translate(113.39 3.65)"/><line class="cls-22" x1="508.93" y1="545.04" x2="539.36" y2="536.63"/><path class="cls-23" d="M409.84,540.63a3.82,3.82,0,0,0-.54-6,11.38,11.38,0,0,0-6.39-1.87c-5.9,0-49.21-17.5-49.21-17.5l1.95-20.72-17.31-6.41s-7.83,29.1-2.36,40.26,50.31,9,61.25,8.53,8.34,5.29,8.34,5.29A7.51,7.51,0,0,0,409.84,540.63Z" transform="translate(113.39 3.65)"/><path class="cls-18" d="M337.73,490.07s2.62-22.1,13.34-20.57,5.69,26.69,5.69,26.69S344.73,495.53,337.73,490.07Z" transform="translate(113.39 3.65)"/><path class="cls-8" d="M209,720.34c1.82,1.83-1.6,5.23.22,7.06s5.23-1.57,7,.25-1.6,5.23.22,7.06,5.23-1.58,7.05.25-1.6,5.23.22,7,5.23-1.57,7.05.26-1.59,5.23.23,7.06,5.23-1.57,7.05.26" transform="translate(113.39 3.65)"/><path class="cls-24" d="M432.65,636.21c.73-.88,2.92.92,3.65,0s-1.46-2.68-.74-3.57,2.92.91,3.64,0-1.46-2.69-.73-3.57,2.92.91,3.64,0-1.46-2.68-.73-3.57,2.92.91,3.65,0-1.47-2.69-.74-3.58,2.92.91,3.65,0-1.46-2.69-.73-3.58,2.92.91,3.65,0" transform="translate(113.39 3.65)"/><path class="cls-24" d="M489,669.2c.77.85-1.33,2.75-.57,3.6s2.88-1,3.64-.2-1.33,2.75-.56,3.6,2.87-1.05,3.64-.2-1.34,2.75-.57,3.6,2.87-1.05,3.64-.2-1.33,2.76-.56,3.61,2.87-1,3.64-.2-1.33,2.75-.56,3.61,2.87-1,3.64-.2-1.33,2.76-.56,3.61" transform="translate(113.39 3.65)"/><ellipse class="cls-3" cx="874.79" cy="747.2" rx="266.98" ry="7.98"/><path class="cls-25" d="M751.19,496.64l23.44,23.45,12.47,2.49-55.37,93.78,7-1S813,551.51,822,533.55s7-28.43,3-33.92-30.93-20.45-30.93-20.45L726.23,466.8l-.28,1.27" transform="translate(113.39 3.65)"/><line class="cls-26" x1="876.62" y1="650.8" x2="853.45" y2="626.2"/><path class="cls-5" d="M732.48,622.22c.67-.21,1.34-.36,2-.51h12c.67.17,1.34.29,2,.5-.66.2-1.33.33-2,.5h-12C733.82,622.57,733.15,622.42,732.48,622.22Z" transform="translate(113.39 3.65)"/><path class="cls-12" d="M732.09,620.25c.07.92.13,1.5,1.68,1.5,2.46,0,15.76.16,15.76.16a2.33,2.33,0,0,0,2.62-2.63c0-2.95-6.89-1.8-9-3.61-1.85-1.57-3.46-5.37-3.85-6.34a.32.32,0,0,0-.34-.2l-2.3.15a.33.33,0,0,0-.28.48,5.73,5.73,0,0,1-.79,5.38s-1.23,1.35-2.94-.29c-1.17-1.11-2,1.48-1,3.45a4.79,4.79,0,0,1,.46,2" transform="translate(113.39 3.65)"/><path class="cls-27" d="M732.06,619.74s-.3,1.93,1.14,2,16.71.21,16.71.21a2.19,2.19,0,0,0,2.12-1.68Z" transform="translate(113.39 3.65)"/><path class="cls-18" d="M787,522.7l-48.52-10,3.14-38.28,9.71-9.16S778,468,811,487.72c25.74,15.38,21.73,34.91,9.52,50.29s-72,70.31-72,70.31l-8.79-7.57Z" transform="translate(113.39 3.65)"/><path class="cls-28" d="M886.82,525c1.94,4.72,2.82,7.45,2.82,7.45l9.35.83-4.12,10.44s-6.87-6.52-14.23-14.28" transform="translate(113.39 3.65)"/><path class="cls-27" d="M841.45,445.08s-14.56-25.54-19-26.73-4.61,9.95-4.61,9.95L822,457.86s1.6-.71,3.87-1.82l6.34,14s33.53,42.88,42.6,53.05c1.9,2.13,3.89,4.27,5.84,6.33l6.18-4.44c-1.65-4-4.06-9.47-7.35-15.91-7.14-14-18.23-25.94-21.53-33.6" transform="translate(113.39 3.65)"/><path class="cls-7" d="M639.4,568.56c-47.23,0-85.52,39.32-85.52,87.82s38.29,87.82,85.52,87.82,85.51-39.32,85.51-87.82S686.63,568.56,639.4,568.56Zm0,167.74c-43,0-77.83-35.78-77.83-79.92s34.84-79.92,77.83-79.92,77.82,35.78,77.82,79.92S682.38,736.3,639.4,736.3Z" transform="translate(113.39 3.65)"/><path class="cls-5" d="M630.49,573.45c-44.69,0-80.92,37.67-80.92,84.13s36.23,84.12,80.92,84.12,80.92-37.66,80.92-84.12S675.18,573.45,630.49,573.45Zm0,160.69c-40.67,0-73.64-34.28-73.64-76.56s33-76.56,73.64-76.56,73.65,34.27,73.65,76.56S671.17,734.14,630.49,734.14Z" transform="translate(113.39 3.65)"/><path class="cls-12" d="M631.52,569a87.82,87.82,0,1,0,87.82,87.82A87.82,87.82,0,0,0,631.52,569Zm0,167.74a79.93,79.93,0,1,1,79.93-79.92A79.92,79.92,0,0,1,631.52,736.74Z" transform="translate(113.39 3.65)"/><path class="cls-7" d="M907.13,568.56c-47.23,0-85.52,39.32-85.52,87.82s38.29,87.82,85.52,87.82,85.51-39.32,85.51-87.82S954.36,568.56,907.13,568.56Zm0,167.74c-43,0-77.83-35.78-77.83-79.92s34.84-79.92,77.83-79.92S985,612.24,985,656.38,950.11,736.3,907.13,736.3Z" transform="translate(113.39 3.65)"/><path class="cls-5" d="M898.22,573.45c-44.69,0-80.92,37.67-80.92,84.13s36.23,84.12,80.92,84.12,80.92-37.66,80.92-84.12S942.91,573.45,898.22,573.45Zm0,160.69c-40.67,0-73.64-34.28-73.64-76.56s33-76.56,73.64-76.56,73.65,34.27,73.65,76.56S938.9,734.14,898.22,734.14Z" transform="translate(113.39 3.65)"/><path class="cls-12" d="M899.25,569a87.82,87.82,0,1,0,87.82,87.82A87.82,87.82,0,0,0,899.25,569Zm0,167.74a79.93,79.93,0,1,1,79.93-79.92A79.92,79.92,0,0,1,899.25,736.74Z" transform="translate(113.39 3.65)"/><polygon class="cls-11" points="821.96 544.52 755.75 657.69 881.37 657.69 974.17 549.61 968.52 530.37 821.96 544.52"/><line class="cls-11" x1="802.72" y1="509.44" x2="881.37" y2="657.69"/><line class="cls-11" x1="974.17" y1="549.61" x2="1011.31" y2="659.03"/><path class="cls-11" d="M855.13,526.73V508.08h32.1s15.42,1.4,15.42,18.22-17.17,17.17-23.83,17.17" transform="translate(113.39 3.65)"/><circle class="cls-29" cx="882.5" cy="657.22" r="21.2"/><line class="cls-30" x1="903.4" y1="657.14" x2="861.6" y2="657.3"/><line class="cls-30" x1="883.78" y1="636.36" x2="881.22" y2="678.08"/><line class="cls-30" x1="898.16" y1="643.37" x2="866.84" y2="671.06"/><line class="cls-30" x1="868.66" y1="641.56" x2="896.35" y2="672.88"/><line class="cls-11" x1="811.89" y1="561.11" x2="691.12" y2="561.11"/><polyline class="cls-11" points="714.41 561.81 755.75 657.69 760.18 561.81"/><rect class="cls-12" x="692.39" y="503.74" width="82.3" height="54.48" rx="2.5"/><path class="cls-31" d="M609.33,499.9s1.24-5.7,2.46-7.84c0,0,11,0,11,0" transform="translate(113.39 3.65)"/><path class="cls-31" d="M629.32,499.9s-1.24-5.7-2.46-7.84c0,0-11,0-11,0" transform="translate(113.39 3.65)"/><path class="cls-32" d="M705.83,498.27l-29-5s-10.23-1.67-10.23,6.9,15.94,6.19,15.94,6.19l31.42-1.19s3.09-.48,3.09-2.86S705.83,498.27,705.83,498.27Z" transform="translate(113.39 3.65)"/><line class="cls-26" x1="913.72" y1="680.34" x2="883.05" y2="655.73"/><path class="cls-25" d="M726,468.07l-10.53,47.49,9.33,29,19,21,48.39,107.24,3.75-1s-9.71-96.26-14.2-109.72-33.52-65-33.52-65" transform="translate(113.39 3.65)"/><path class="cls-33" d="M727.35,445.61s-32.26,1.47-41.57,13.28c-8.28,10.5-14.15,35.92,9.64,63.61s44.45,41.19,44.45,41.19l17.46,36,27,64.22L796.21,662l-9.11-74.61s-3.92-34.2-19-58.32c-10.26-16.39-18-31.22-18-31.22l17-5.27Z" transform="translate(113.39 3.65)"/><path class="cls-5" d="M791.74,677.86c.67-.21,1.33-.36,2-.51h12c.67.16,1.33.29,2,.5-.67.2-1.33.33-2,.5h-12C793.07,678.21,792.41,678.06,791.74,677.86Z" transform="translate(113.39 3.65)"/><path class="cls-12" d="M791.35,675.88c.07.92.13,1.51,1.67,1.51,2.47,0,15.76.16,15.76.16a2.34,2.34,0,0,0,2.63-2.63c0-2.95-6.9-1.8-9-3.61-1.86-1.57-3.46-5.38-3.85-6.34a.34.34,0,0,0-.34-.21l-3.52.28a.34.34,0,0,0-.29.48c.65,1.38,1.65,3.77.44,5.26,0,0-1.24,1.35-3-.29-1.16-1.11-2,1.48-1,3.45a5,5,0,0,1,.46,1.94" transform="translate(113.39 3.65)"/><path class="cls-27" d="M791.31,675.38s-.3,1.93,1.14,2,16.71.21,16.71.21a2.21,2.21,0,0,0,2.13-1.68Z" transform="translate(113.39 3.65)"/><path class="cls-12" d="M715.28,435.5s18,0,45.6-11.85,53.86-15.08,61-1.44,7.19,45.87-21.84,60.87C777,495,757.29,497.25,757.29,497.25S716.72,475.71,715.28,435.5Z" transform="translate(113.39 3.65)"/><path class="cls-34" d="M819,408.08s-2.24,6.41-2.84,7.31-2.09,4.77,1.64,5.52,4.48-1.49,4.48-1.49l2.39-7.31Z" transform="translate(113.39 3.65)"/><path class="cls-35" d="M823.57,390.05s10.64-4.75,15.09-.55,4.74,8.32,3.87,14-2.71,6.57-2.34,9.33-4.6,2.84-4.6,2.84l-15.52-12Z" transform="translate(113.39 3.65)"/><path class="cls-12" d="M826.1,399.14s1.33-9.06,6.88-7.54,7.76,4.16,11.17,2.31c2.94-1.59,3.8-8.69,3.8-8.69s-8.37,1.41-14.12-3c-5.24-4-9.86-5-11.7-2.56s-3.24,7.6-3.24,7.6-4.08-1.92-5.78,4.87,0,9.54,1.81,12.63a10.74,10.74,0,0,0,5.75,5s-1.56,7,6.49,9.56,12.35,3.86,13.4.53a8.25,8.25,0,0,0-.42-6s-4.42-.93-3.77-3c.53-1.7,2.92,0,4.16-.43.29-.11.48-.6.6-1s.5-1.14.29-1.41c-.4-.5-3.37-1.35-3.37-1.35s-4-1.27-4.76.79-3.34,3-4.1,1.36S824.73,404.43,826.1,399.14Z" transform="translate(113.39 3.65)"/><path class="cls-36" d="M822.37,406.74s2.68-5.61,1.26-7-3.26-1.33-3.74.21S820.65,405.89,822.37,406.74Z" transform="translate(113.39 3.65)"/><path class="cls-37" d="M887.23,508.18s15.42,1.4,15.42,18.22-17.17,17.17-23.83,17.17" transform="translate(113.39 3.65)"/><path class="cls-38" d="M869.06,537.81l6.81,3.72s5,9.26,9.91,7.55-1.9-8.75-1.9-8.75,4.18.38,3.23-1.33-7.42-.38-7.42-.38-1.94-2.77-4.86-6.9" transform="translate(113.39 3.65)"/><path class="cls-1" d="M820.09,423.3h0l.55-1.16-.75-1h-1.46l-.75,1,.55,1.16h.11l-4,40.29,4.9,8.56v0l4.91-8.56Z" transform="translate(113.39 3.65)"/><path class="cls-27" d="M850.21,498.11c-7.22-8.74-16.73-18.44-16.73-18.44l-13.56-34.31c-.24-1.85-1.26-9.66-2.25-14.33-3.73-17.57-21.3-12.92-21.3-12.92h0c-11.52,4.14-8.29,19.37-8.29,19.37C788.08,441,796,453,796,453l.41-.22c5.15,11,16.46,34.59,22.08,42.09,7.43,9.9,30.12,31.77,39.2,36.72l11.34,6.19,5.77-6.09C867.86,521.87,855.31,504.28,850.21,498.11Z" transform="translate(113.39 3.65)"/><polygon class="cls-12" points="988.4 534.74 989.26 536.09 982.97 542.18 981.57 541.38 988.4 534.74"/><polygon class="cls-12" points="1000.19 527.42 1000.85 528.8 994.09 533.8 992.84 532.87 1000.19 527.42"/><path class="cls-24" d="M728,575.37c.53,1-2,2.34-1.45,3.35s3-.3,3.57.72-2,2.33-1.44,3.34,3-.29,3.57.72-2,2.33-1.45,3.35,3.05-.3,3.58.71-2,2.33-1.45,3.35,3.05-.3,3.58.72-2,2.33-1.44,3.35,3-.3,3.57.72-2,2.34-1.44,3.35" transform="translate(113.39 3.65)"/></g></svg>