<?xml version="1.0" encoding="utf-8"?>
<!-- Generator: Adobe Illustrator 23.0.4, SVG Export Plug-In . SVG Version: 6.00 Build 0)  -->
<svg version="1.1" id="Layer_1" xmlns="http://www.w3.org/2000/svg" xmlns:xlink="http://www.w3.org/1999/xlink" x="0px" y="0px"
	 viewBox="0 0 100 125" style="enable-background:new 0 0 100 125;" xml:space="preserve">
<style type="text/css">
	.st0{fill:#FFFFFF;}
</style>
<path class="st0" d="M89,10H63c-0.1,0-0.2,0-0.3,0L37,18L11.3,10c-0.3-0.1-0.6,0-0.9,0.2C10.2,10.4,10,10.7,10,11v70
	c0,0.4,0.3,0.8,0.7,1l26,8c0.1,0,0.2,0,0.3,0s0.2,0,0.3,0l25.9-8H89c0.6,0,1-0.4,1-1V11C90,10.4,89.6,10,89,10z M62,55.7
	c-0.9,0.4-1.8,0.7-2.8,1c-0.5,0.2-0.8,0.7-0.7,1.2c0.1,0.4,0.5,0.7,1,0.7c0.1,0,0.2,0,0.3,0c0.7-0.2,1.5-0.5,2.2-0.8v8.3
	c-0.2,0-0.4,0-0.6,0.1c-0.9,0.4-1.8,0.9-2.7,1.3c-0.5,0.2-0.7,0.9-0.4,1.3c0.2,0.3,0.5,0.5,0.9,0.5c0.2,0,0.3,0,0.5-0.1
	c0.8-0.4,1.6-0.8,2.5-1.2v12.1l-24,7.4V55.6c0.1,0.1,0.2,0.3,0.3,0.4c0.9,0.7,1.8,1.3,2.7,1.8c0.2,0.1,0.3,0.1,0.5,0.1
	c0.4,0,0.7-0.2,0.9-0.5c0.3-0.5,0.1-1.1-0.4-1.4c-0.8-0.5-1.7-1-2.5-1.6c-0.4-0.3-1.1-0.2-1.4,0.2c0,0.1-0.1,0.1-0.1,0.2V41.9
	c4.4-1.8,12.8-4.5,24-4.8V55.7z M38,39.7v-20l24-7.4v22.8C51.1,35.4,42.8,37.9,38,39.7z M12,74.7c0.6,0.2,1.5,0.6,2.7,0.9
	c0.1,0,0.2,0,0.3,0c0.4,0,0.8-0.3,1-0.7c0.2-0.5-0.1-1.1-0.7-1.2c-1.3-0.4-2.2-0.7-2.8-1c-0.2-0.1-0.4-0.1-0.5,0V27.4
	c0.2,0,0.6,0,1,0c0,0,0.1,0,0.1,0c0.5,0,1-0.4,1-0.9c0-0.6-0.4-1-0.9-1.1c-0.5,0-0.9-0.1-1.2,0v-13l24,7.4v20.8
	c-1.7,0.7-2.6,1.2-2.6,1.3c-0.5,0.3-0.6,0.9-0.4,1.4c0.2,0.3,0.5,0.5,0.9,0.5c0.2,0,0.3,0,0.5-0.1c0,0,0.6-0.3,1.6-0.8v8.4
	c-0.5-0.5-1-1.1-1.4-1.7c-0.3-0.4-1-0.5-1.4-0.2c-0.4,0.3-0.5,1-0.2,1.4c0.7,0.9,1.4,1.7,2.1,2.4c0.2,0.2,0.5,0.3,0.7,0.3
	c0.1,0,0.1,0,0.2,0v22.6c-0.1,0-0.2,0-0.3,0c-1,0.1-2,0.2-2.9,0.2c-0.6,0-1,0.5-1,1c0,0.5,0.5,1,1,1c0,0,0,0,0,0c1,0,2-0.1,3.1-0.2
	c0,0,0.1,0,0.1,0v9.8l-24-7.4V74.7z M64,80V37.1c6.5,0,13.8,0.7,21.8,2.9c0.5,0.1,1.1-0.2,1.2-0.7c0.1-0.5-0.2-1.1-0.7-1.2
	c-2.1-0.6-4.2-1-6.2-1.4c0.3-0.5,0.6-1,0.9-1.4c0.3-0.5,0.2-1.1-0.3-1.4c-0.5-0.3-1.1-0.2-1.4,0.3c-0.4,0.7-0.9,1.4-1.3,2.1
	c-5-0.8-9.7-1.2-14-1.1V12h24v11.9c-0.1,0-0.1,0-0.2,0.1c0,0-0.5,0.4-1.2,1c-0.4,0.4-0.4,1-0.1,1.4c0.2,0.2,0.5,0.3,0.7,0.3
	c0.2,0,0.5-0.1,0.7-0.3c0,0,0,0,0.1-0.1v31.1c-0.4,0.1-1.4,0.3-2.8,0.6c-0.5,0.1-0.9,0.7-0.7,1.2c0.1,0.5,0.5,0.8,1,0.8
	c0.1,0,0.2,0,0.2,0c1-0.3,1.8-0.4,2.3-0.5V80H64z"/>
<path class="st0" d="M45,59.4c1.1,0.3,2.1,0.5,3.2,0.6c0,0,0.1,0,0.1,0c0.5,0,0.9-0.4,1-0.9c0.1-0.5-0.3-1-0.9-1.1
	c-1-0.1-1.9-0.3-2.9-0.5c-0.5-0.2-1.1,0.2-1.2,0.7C44.2,58.6,44.5,59.2,45,59.4z"/>
<path class="st0" d="M77,40.1c-0.5-0.2-1.1,0-1.3,0.5c-0.3,0.6-0.6,1.2-0.8,1.8c-0.2,0.3-0.3,0.7-0.5,1c-0.2,0.5,0,1.1,0.4,1.3
	c0.1,0.1,0.3,0.1,0.4,0.1c0.4,0,0.7-0.2,0.9-0.6c0.2-0.3,0.3-0.7,0.5-1.1c0.3-0.6,0.5-1.2,0.8-1.7C77.7,40.9,77.5,40.3,77,40.1z"/>
<path class="st0" d="M83.6,28.2c-0.7,0.8-1.3,1.6-2,2.5c-0.3,0.4-0.2,1.1,0.2,1.4c0.2,0.1,0.4,0.2,0.6,0.2c0.3,0,0.6-0.1,0.8-0.4
	c0.6-0.8,1.2-1.6,1.9-2.4c0.4-0.4,0.3-1.1-0.1-1.4C84.6,27.7,84,27.8,83.6,28.2z"/>
<path class="st0" d="M52.4,60C52.5,60,52.5,60,52.4,60c1.1-0.1,2.2-0.2,3.2-0.3c0.5-0.1,0.9-0.6,0.8-1.1c-0.1-0.5-0.6-0.9-1.1-0.8
	c-1,0.1-2,0.3-3,0.3c-0.6,0-1,0.5-0.9,1.1C51.5,59.6,51.9,60,52.4,60z"/>
<path class="st0" d="M67.8,52c-0.7,0.7-1.5,1.3-2.3,1.8c-0.5,0.3-0.6,0.9-0.3,1.4c0.2,0.3,0.5,0.4,0.8,0.4c0.2,0,0.4-0.1,0.6-0.2
	c0.9-0.6,1.7-1.3,2.6-2c0.4-0.4,0.5-1,0.1-1.4C68.9,51.7,68.3,51.7,67.8,52z"/>
<path class="st0" d="M26,37.8c0.1,0.3,0.3,0.6,0.4,1c0.3,0.6,0.5,1.3,0.8,1.9c0.2,0.4,0.5,0.6,0.9,0.6c0.1,0,0.3,0,0.4-0.1
	c0.5-0.2,0.7-0.8,0.5-1.3c-0.3-0.6-0.5-1.2-0.8-1.8c-0.1-0.4-0.3-0.7-0.4-1c-0.2-0.5-0.8-0.7-1.3-0.5C26,36.7,25.8,37.3,26,37.8z"/>
<path class="st0" d="M72.1,50.5c0.7-0.8,1.3-1.7,1.9-2.6c0.3-0.5,0.2-1.1-0.3-1.4c-0.5-0.3-1.1-0.2-1.4,0.3
	c-0.6,0.8-1.2,1.6-1.8,2.4c-0.4,0.4-0.3,1.1,0.1,1.4c0.2,0.2,0.4,0.2,0.6,0.2C71.7,50.8,71.9,50.7,72.1,50.5z"/>
<path class="st0" d="M32.3,46.1c-0.5-0.8-1-1.7-1.5-2.6c-0.3-0.5-0.9-0.7-1.4-0.4c-0.5,0.3-0.7,0.9-0.4,1.4c0.5,0.9,1,1.9,1.6,2.7
	c0.2,0.3,0.5,0.5,0.9,0.5c0.2,0,0.4,0,0.5-0.2C32.4,47.2,32.6,46.6,32.3,46.1z"/>
<path class="st0" d="M16.7,28.3c0.9,0.3,1.8,0.8,2.6,1.3c0.2,0.1,0.4,0.2,0.5,0.2c0.3,0,0.7-0.2,0.8-0.5c0.3-0.5,0.2-1.1-0.3-1.4
	c-0.9-0.6-1.9-1.1-2.9-1.5c-0.5-0.2-1.1,0.1-1.3,0.6C16,27.5,16.2,28.1,16.7,28.3z"/>
<path class="st0" d="M24.1,34.3c0.2,0.3,0.5,0.4,0.8,0.4c0.2,0,0.4-0.1,0.6-0.2c0.5-0.3,0.6-0.9,0.3-1.4c-0.6-0.9-1.3-1.8-2-2.5
	c-0.4-0.4-1-0.4-1.4,0c-0.4,0.4-0.4,1,0,1.4C22.9,32.7,23.5,33.5,24.1,34.3z"/>
<path class="st0" d="M46.2,73.6c-0.5,0.2-0.8,0.7-0.6,1.3c0.1,0.4,0.5,0.7,0.9,0.7c0.1,0,0.2,0,0.3-0.1c1-0.3,1.9-0.7,2.9-1.1
	c0.5-0.2,0.8-0.8,0.5-1.3c-0.2-0.5-0.8-0.8-1.3-0.5C48,73,47.1,73.3,46.2,73.6z"/>
<path class="st0" d="M81.3,59.2c-0.9,0.2-1.9,0.5-2.9,0.8c-0.5,0.2-0.8,0.7-0.7,1.2c0.1,0.4,0.5,0.7,1,0.7c0.1,0,0.2,0,0.3,0
	c1-0.3,2-0.6,2.9-0.8c0.5-0.1,0.8-0.7,0.7-1.2C82.4,59.4,81.9,59.1,81.3,59.2z"/>
<path class="st0" d="M39.6,75.3c-0.5,0.1-0.9,0.6-0.8,1.2c0.1,0.5,0.5,0.8,1,0.8c0.1,0,0.1,0,0.2,0c1-0.2,2-0.4,3-0.6
	c0.5-0.1,0.9-0.7,0.7-1.2c-0.1-0.5-0.7-0.9-1.2-0.7C41.5,75,40.5,75.2,39.6,75.3z"/>
<path class="st0" d="M22,75.3c-1-0.2-1.9-0.4-2.9-0.6c-0.5-0.1-1.1,0.2-1.2,0.8c-0.1,0.5,0.2,1.1,0.8,1.2c1,0.2,2,0.4,3,0.6
	c0.1,0,0.1,0,0.2,0c0.5,0,0.9-0.3,1-0.8C22.9,76,22.5,75.4,22,75.3z"/>
<path class="st0" d="M55.1,69.5l-0.2,0.1c-0.8,0.5-1.6,0.9-2.4,1.3c-0.5,0.3-0.7,0.9-0.4,1.3c0.2,0.3,0.5,0.5,0.9,0.5
	c0.2,0,0.3,0,0.5-0.1c0.8-0.4,1.7-0.9,2.5-1.4l0.2-0.1c0.5-0.3,0.6-0.9,0.3-1.4C56.1,69.4,55.5,69.2,55.1,69.5z"/>
<path class="st0" d="M67.9,63.6c-0.9,0.4-1.9,0.7-2.8,1.1c-0.5,0.2-0.8,0.8-0.5,1.3c0.2,0.4,0.5,0.6,0.9,0.6c0.1,0,0.3,0,0.4-0.1
	c0.9-0.4,1.8-0.7,2.8-1.1c0.5-0.2,0.8-0.8,0.6-1.3C69,63.6,68.4,63.4,67.9,63.6z"/>
<path class="st0" d="M74.6,61.2c-0.9,0.3-1.9,0.6-2.9,1c-0.5,0.2-0.8,0.7-0.6,1.3c0.1,0.4,0.5,0.7,0.9,0.7c0.1,0,0.2,0,0.3-0.1
	c1-0.3,1.9-0.6,2.8-0.9c0.5-0.2,0.8-0.7,0.6-1.3C75.7,61.4,75.1,61.1,74.6,61.2z"/>
<path class="st0" d="M28.8,76.1c-1,0-2-0.1-2.9-0.2c-0.6-0.1-1,0.4-1.1,0.9c-0.1,0.5,0.3,1,0.9,1.1c1,0.1,2,0.2,3,0.2c0,0,0,0,0,0
	c0.5,0,1-0.4,1-1C29.8,76.5,29.4,76.1,28.8,76.1z"/>
<path class="st0" d="M27.6,45.5c-0.3-0.5-0.9-0.6-1.4-0.4c-5.7,3.3-11.8,2.8-11.8,2.8c-0.5-0.1-1,0.3-1.1,0.9
	c-0.1,0.5,0.3,1,0.9,1.1c0.1,0,0.6,0.1,1.4,0.1c2.3,0,7-0.4,11.7-3.1C27.8,46.6,27.9,46,27.6,45.5z"/>
</svg>
