<?xml version="1.0" encoding="utf-8"?>
<!-- Generator: Adobe Illustrator 23.0.4, SVG Export Plug-In . SVG Version: 6.00 Build 0)  -->
<svg version="1.1" id="Layer_1" xmlns="http://www.w3.org/2000/svg" xmlns:xlink="http://www.w3.org/1999/xlink" x="0px" y="0px"
	 viewBox="0 0 100 125" style="enable-background:new 0 0 100 125;" xml:space="preserve">
<style type="text/css">
	.st0{fill:#FFFFFF;}
</style>
<path class="st0" d="M50,61.4c6.3,0,11.4-5.1,11.4-11.4S56.3,38.6,50,38.6S38.6,43.7,38.6,50S43.7,61.4,50,61.4z M50,40.6
	c5.2,0,9.4,4.2,9.4,9.4c0,5.2-4.2,9.4-9.4,9.4s-9.4-4.2-9.4-9.4C40.6,44.8,44.8,40.6,50,40.6z"/>
<path class="st0" d="M32.7,50.5C32.7,50.5,32.7,50.5,32.7,50.5c0.6,0,1-0.4,1-1c0-1.6,0.3-3.1,0.8-4.6c0.2-0.5-0.1-1.1-0.6-1.3
	c-0.5-0.2-1.1,0.1-1.3,0.6c-0.5,1.6-0.8,3.4-0.9,5.1C31.7,50,32.2,50.4,32.7,50.5z"/>
<path class="st0" d="M36.4,40.4c0.3,0,0.6-0.1,0.8-0.4c1-1.2,2.1-2.3,3.3-3.2c0.4-0.3,0.5-0.9,0.2-1.4c-0.3-0.4-1-0.5-1.4-0.2
	c-1.4,1-2.7,2.2-3.7,3.6c-0.3,0.4-0.3,1.1,0.2,1.4C35.9,40.4,36.2,40.4,36.4,40.4z"/>
<path class="st0" d="M34.5,55c-0.2-0.5-0.7-0.8-1.3-0.6c-0.5,0.2-0.8,0.7-0.6,1.3c0.5,1.7,1.3,3.2,2.3,4.7c0.2,0.3,0.5,0.4,0.8,0.4
	c0.2,0,0.4-0.1,0.6-0.2c0.5-0.3,0.6-0.9,0.3-1.4C35.7,57.8,35,56.4,34.5,55z"/>
<path class="st0" d="M59.5,63.2c-0.4,0.3-0.5,1-0.2,1.4c0.2,0.3,0.5,0.4,0.8,0.4c0.2,0,0.4-0.1,0.6-0.2c1.4-1,2.7-2.2,3.7-3.6
	c0.3-0.4,0.3-1.1-0.2-1.4c-0.4-0.3-1.1-0.3-1.4,0.2C61.9,61.2,60.8,62.2,59.5,63.2z"/>
<path class="st0" d="M65.5,45c0.1,0.4,0.5,0.7,1,0.7c0.1,0,0.2,0,0.3,0c0.5-0.2,0.8-0.7,0.6-1.3c-0.5-1.7-1.3-3.2-2.3-4.7
	c-0.3-0.5-0.9-0.6-1.4-0.3c-0.5,0.3-0.6,0.9-0.3,1.4C64.3,42.1,65,43.5,65.5,45z"/>
<path class="st0" d="M66.2,50.5c0,1.6-0.3,3.1-0.8,4.6c-0.2,0.5,0.1,1.1,0.6,1.3c0.1,0,0.2,0,0.3,0c0.4,0,0.8-0.3,1-0.7
	c0.5-1.6,0.8-3.4,0.9-5.1c0-0.6-0.4-1-1-1C66.8,49.5,66.3,49.9,66.2,50.5z"/>
<path class="st0" d="M55.5,34.7c1.5,0.5,2.8,1.3,4.1,2.2c0.2,0.1,0.4,0.2,0.6,0.2c0.3,0,0.6-0.1,0.8-0.4c0.3-0.4,0.2-1.1-0.2-1.4
	c-1.4-1-3-1.8-4.6-2.4c-0.5-0.2-1.1,0.1-1.3,0.6C54.7,33.9,55,34.5,55.5,34.7z"/>
<path class="st0" d="M54.6,65.6c-1.5,0.4-3,0.7-4.6,0.7l0,1v-1c-0.6,0-1,0.4-1,1c0,0.6,0.5,1,1,1c1.7,0,3.5-0.2,5.1-0.7
	c0.5-0.2,0.8-0.7,0.7-1.2C55.7,65.7,55.1,65.4,54.6,65.6z"/>
<path class="st0" d="M44.5,65.3c-1.5-0.5-2.8-1.3-4.1-2.2c-0.4-0.3-1.1-0.2-1.4,0.2c-0.3,0.4-0.2,1.1,0.2,1.4c1.4,1,2.9,1.9,4.6,2.4
	c0.1,0,0.2,0.1,0.3,0.1c0.4,0,0.8-0.3,0.9-0.7C45.3,66,45,65.5,44.5,65.3z"/>
<path class="st0" d="M45.2,34.4c0.1,0,0.2,0,0.3,0c1.5-0.4,3-0.6,4.5-0.6h0c0.6,0,1-0.4,1-1s-0.5-1-1-1c-1.7,0-3.5,0.2-5.1,0.7
	c-0.5,0.2-0.8,0.7-0.7,1.2C44.3,34.1,44.7,34.4,45.2,34.4z"/>
<path class="st0" d="M10.9,57.4c-0.3,0-0.5,0.2-0.7,0.4C10,58.1,10,58.3,10,58.6c1,4.8,2.9,9.4,5.6,13.5c0.2,0.2,0.4,0.4,0.7,0.4
	c0.3,0,0.6,0,0.8-0.2c3-2.4,7.2-2.2,10,0.5c2.7,2.7,2.9,7,0.5,10c-0.2,0.2-0.3,0.5-0.2,0.8c0,0.3,0.2,0.5,0.4,0.7
	C32,87,36.6,88.9,41.4,90c0.3,0.1,0.6,0,0.8-0.2c0.2-0.2,0.4-0.4,0.4-0.7c0.4-3.8,3.6-6.7,7.4-6.7s7,2.9,7.4,6.7
	c0,0.3,0.2,0.5,0.4,0.7c0.2,0.1,0.4,0.2,0.6,0.2c0.1,0,0.1,0,0.2,0c4.8-1,9.4-2.9,13.5-5.6c0.2-0.2,0.4-0.4,0.4-0.7
	c0-0.3,0-0.6-0.2-0.8c-2.4-3-2.2-7.3,0.5-10c2.7-2.7,7-2.9,10-0.5c0.2,0.2,0.5,0.3,0.8,0.2c0.3,0,0.5-0.2,0.7-0.4
	c2.7-4.2,4.6-8.7,5.6-13.5c0.1-0.3,0-0.6-0.2-0.8c-0.2-0.2-0.4-0.4-0.7-0.4c-3.8-0.4-6.7-3.6-6.7-7.4c0-3.8,2.9-7,6.7-7.4
	c0.3,0,0.5-0.2,0.7-0.4c0.2-0.2,0.2-0.5,0.2-0.8c-1-4.8-2.9-9.4-5.6-13.5c-0.2-0.2-0.4-0.4-0.7-0.4c-0.3,0-0.6,0-0.8,0.2
	c-3,2.4-7.2,2.2-10-0.5c-2.7-2.7-2.9-7-0.5-10c0.2-0.2,0.3-0.5,0.2-0.8c0-0.3-0.2-0.5-0.4-0.7c-4.2-2.7-8.7-4.6-13.5-5.6
	c-0.3-0.1-0.6,0-0.8,0.2c-0.2,0.2-0.4,0.4-0.4,0.7c-0.4,3.8-3.6,6.7-7.4,6.7s-7-2.9-7.4-6.7c0-0.3-0.2-0.5-0.4-0.7S41.7,10,41.4,10
	c-4.8,1-9.4,2.9-13.5,5.6c-0.2,0.2-0.4,0.4-0.4,0.7c0,0.3,0,0.6,0.2,0.8c2.4,3,2.2,7.3-0.5,10c-2.7,2.7-7,2.9-10,0.5
	c-0.2-0.2-0.5-0.3-0.8-0.2c-0.3,0-0.5,0.2-0.7,0.4c-2.7,4.2-4.6,8.7-5.6,13.5c-0.1,0.3,0,0.6,0.2,0.8c0.2,0.2,0.4,0.4,0.7,0.4
	c3.8,0.4,6.7,3.6,6.7,7.4C17.6,53.8,14.7,57,10.9,57.4z M19.6,50c0-4.5-3.1-8.3-7.4-9.2c0.9-3.9,2.5-7.6,4.6-11
	c3.7,2.3,8.6,1.8,11.7-1.3c3.2-3.2,3.7-8,1.3-11.7c3.4-2.1,7.1-3.6,11-4.6c1,4.3,4.7,7.4,9.2,7.4s8.3-3.1,9.2-7.4
	c3.9,0.9,7.6,2.5,11,4.6c-2.3,3.7-1.8,8.6,1.3,11.7c3.2,3.2,8,3.7,11.7,1.3c2.1,3.4,3.6,7.1,4.6,11c-4.3,1-7.4,4.7-7.4,9.2
	s3.1,8.3,7.4,9.2c-0.9,3.9-2.5,7.6-4.6,11c-3.7-2.3-8.6-1.8-11.7,1.3c-3.2,3.2-3.7,8-1.3,11.7c-3.4,2.1-7.1,3.6-11,4.6
	c-1-4.3-4.7-7.4-9.2-7.4s-8.3,3.1-9.2,7.4c-3.9-0.9-7.6-2.5-11-4.6c2.3-3.7,1.8-8.6-1.3-11.7c-3.2-3.2-8-3.7-11.7-1.3
	c-2.1-3.4-3.6-7.1-4.6-11C16.5,58.3,19.6,54.5,19.6,50z"/>
</svg>
