<svg id="Layer_1" data-name="Layer 1" xmlns="http://www.w3.org/2000/svg" viewBox="0 0 81.5 81.54"><defs><style>.cls-1{fill:none;stroke:#fff;stroke-miterlimit:10;stroke-width:1.5px;}</style></defs><title>noun_map</title><path class="cls-1" d="M89,10H62.7L37,18,11.3,10a1,1,0,0,0-.9.2,1.23,1.23,0,0,0-.4.8V81a1.2,1.2,0,0,0,.7,1l26,8h.6l25.9-8H89a.94.94,0,0,0,1-1V11A.94.94,0,0,0,89,10ZM62,55.7a23.07,23.07,0,0,1-2.8,1,1.09,1.09,0,0,0-.7,1.2,1,1,0,0,0,1,.7h.3a19.45,19.45,0,0,0,2.2-.8v8.3a1.27,1.27,0,0,0-.6.1c-.9.4-1.8.9-2.7,1.3a.9.9,0,0,0-.4,1.3,1.05,1.05,0,0,0,.9.5.9.9,0,0,0,.5-.1c.8-.4,1.6-.8,2.5-1.2V80.1l-24,7.4V55.6c.1.1.2.3.3.4a21.11,21.11,0,0,0,2.7,1.8.9.9,0,0,0,.5.1,1.05,1.05,0,0,0,.9-.5,1,1,0,0,0-.4-1.4c-.8-.5-1.7-1-2.5-1.6a1.08,1.08,0,0,0-1.4.2c0,.1-.1.1-.1.2V41.9a69.05,69.05,0,0,1,24-4.8V55.7Zm-24-16v-20l24-7.4V35.1A74.12,74.12,0,0,0,38,39.7Zm-26,35a27.77,27.77,0,0,0,2.7.9H15a1.2,1.2,0,0,0,1-.7.89.89,0,0,0-.7-1.2,20.25,20.25,0,0,1-2.8-1,.45.45,0,0,0-.5,0V27.4h1.1a1,1,0,0,0,1-.9,1.09,1.09,0,0,0-.9-1.1,4.74,4.74,0,0,0-1.2,0v-13l24,7.4V40.6a10,10,0,0,0-2.6,1.3,1.11,1.11,0,0,0-.4,1.4,1.05,1.05,0,0,0,.9.5.9.9,0,0,0,.5-.1l1.6-.8v8.4a11.51,11.51,0,0,1-1.4-1.7A1,1,0,0,0,33,50.8a25.73,25.73,0,0,0,2.1,2.4,1.08,1.08,0,0,0,.7.3H36V76.1h-.3c-1,.1-2,.2-2.9.2a1,1,0,0,0-1,1,1.08,1.08,0,0,0,1,1h0c1,0,2-.1,3.1-.2H36v9.8L12,80.5ZM64,80V37.1A81.38,81.38,0,0,1,85.8,40a1,1,0,0,0,.5-1.9c-2.1-.6-4.2-1-6.2-1.4.3-.5.6-1,.9-1.4a1,1,0,1,0-1.7-1.1c-.4.7-.9,1.4-1.3,2.1a78.06,78.06,0,0,0-14-1.1V12H88V23.9c-.1,0-.1,0-.2.1s-.5.4-1.2,1a1,1,0,1,0,1.3,1.4l.1-.1V57.4c-.4.1-1.4.3-2.8.6a1,1,0,0,0-.7,1.2,1,1,0,0,0,1,.8h.2a20.12,20.12,0,0,1,2.3-.5V80Z" transform="translate(-9.25 -9.21)"/><path class="cls-1" d="M45,59.4a18,18,0,0,0,3.2.6h.1a1.06,1.06,0,0,0,1-.9,1,1,0,0,0-.9-1.1,29.31,29.31,0,0,1-2.9-.5,1,1,0,0,0-1.2.7A1.15,1.15,0,0,0,45,59.4Z" transform="translate(-9.25 -9.21)"/><path class="cls-1" d="M77,40.1a1,1,0,0,0-1.3.5,14.17,14.17,0,0,0-.8,1.8c-.2.3-.3.7-.5,1a1.05,1.05,0,0,0,.4,1.3.6.6,0,0,0,.4.1,1,1,0,0,0,.9-.6,11.73,11.73,0,0,0,.5-1.1c.3-.6.5-1.2.8-1.7A.88.88,0,0,0,77,40.1Z" transform="translate(-9.25 -9.21)"/><path class="cls-1" d="M83.6,28.2c-.7.8-1.3,1.6-2,2.5a1.08,1.08,0,0,0,.2,1.4,1.42,1.42,0,0,0,.6.2.91.91,0,0,0,.8-.4c.6-.8,1.2-1.6,1.9-2.4a1,1,0,0,0-1.5-1.3Z" transform="translate(-9.25 -9.21)"/><path class="cls-1" d="M52.4,60h0l3.2-.3a1,1,0,0,0-.3-1.9c-1,.1-2,.3-3,.3a.9.9,0,0,0-.9,1.1A1.08,1.08,0,0,0,52.4,60Z" transform="translate(-9.25 -9.21)"/><path class="cls-1" d="M67.8,52a13,13,0,0,1-2.3,1.8,1,1,0,0,0-.3,1.4.91.91,0,0,0,.8.4,1.42,1.42,0,0,0,.6-.2c.9-.6,1.7-1.3,2.6-2a1,1,0,0,0,.1-1.4A1.36,1.36,0,0,0,67.8,52Z" transform="translate(-9.25 -9.21)"/><path class="cls-1" d="M26,37.8a10.37,10.37,0,0,1,.4,1c.3.6.5,1.3.8,1.9a1,1,0,0,0,.9.6.6.6,0,0,0,.4-.1,1,1,0,0,0,.5-1.3c-.3-.6-.5-1.2-.8-1.8a10.37,10.37,0,0,0-.4-1,1,1,0,0,0-1.3-.5A.85.85,0,0,0,26,37.8Z" transform="translate(-9.25 -9.21)"/><path class="cls-1" d="M72.1,50.5A24.76,24.76,0,0,0,74,47.9a1,1,0,1,0-1.7-1.1l-1.8,2.4a1,1,0,0,0,.1,1.4.73.73,0,0,0,.6.2A1.08,1.08,0,0,0,72.1,50.5Z" transform="translate(-9.25 -9.21)"/><path class="cls-1" d="M32.3,46.1c-.5-.8-1-1.7-1.5-2.6a1,1,0,1,0-1.8,1,24,24,0,0,0,1.6,2.7,1.05,1.05,0,0,0,.9.5c.2,0,.4,0,.5-.2A1.08,1.08,0,0,0,32.3,46.1Z" transform="translate(-9.25 -9.21)"/><path class="cls-1" d="M16.7,28.3a12.64,12.64,0,0,1,2.6,1.3,1.69,1.69,0,0,0,.5.2.89.89,0,0,0,.8-.5,1,1,0,0,0-.3-1.4,15.93,15.93,0,0,0-2.9-1.5,1,1,0,0,0-1.3.6A1.14,1.14,0,0,0,16.7,28.3Z" transform="translate(-9.25 -9.21)"/><path class="cls-1" d="M24.1,34.3a.91.91,0,0,0,.8.4,1.42,1.42,0,0,0,.6-.2,1,1,0,0,0,.3-1.4,16.86,16.86,0,0,0-2-2.5A1,1,0,0,0,22.4,32C22.9,32.7,23.5,33.5,24.1,34.3Z" transform="translate(-9.25 -9.21)"/><path class="cls-1" d="M46.2,73.6a1,1,0,0,0-.6,1.3,1,1,0,0,0,.9.7.37.37,0,0,0,.3-.1c1-.3,1.9-.7,2.9-1.1a1,1,0,0,0-.8-1.8C48,73,47.1,73.3,46.2,73.6Z" transform="translate(-9.25 -9.21)"/><path class="cls-1" d="M81.3,59.2c-.9.2-1.9.5-2.9.8a1.09,1.09,0,0,0-.7,1.2,1,1,0,0,0,1,.7H79c1-.3,2-.6,2.9-.8a1,1,0,0,0,.7-1.2A1.15,1.15,0,0,0,81.3,59.2Z" transform="translate(-9.25 -9.21)"/><path class="cls-1" d="M39.6,75.3a1,1,0,0,0-.8,1.2,1,1,0,0,0,1,.8H40l3-.6a1,1,0,0,0-.5-1.9C41.5,75,40.5,75.2,39.6,75.3Z" transform="translate(-9.25 -9.21)"/><path class="cls-1" d="M22,75.3l-2.9-.6a1,1,0,1,0-.4,2l3,.6h.2a1,1,0,0,0,1-.8A1.29,1.29,0,0,0,22,75.3Z" transform="translate(-9.25 -9.21)"/><path class="cls-1" d="M55.1,69.5l-.2.1c-.8.5-1.6.9-2.4,1.3a.92.92,0,0,0-.4,1.3,1.05,1.05,0,0,0,.9.5.9.9,0,0,0,.5-.1c.8-.4,1.7-.9,2.5-1.4l.2-.1a1,1,0,0,0,.3-1.4A1.23,1.23,0,0,0,55.1,69.5Z" transform="translate(-9.25 -9.21)"/><path class="cls-1" d="M67.9,63.6c-.9.4-1.9.7-2.8,1.1a.92.92,0,0,0-.5,1.3,1,1,0,0,0,.9.6.6.6,0,0,0,.4-.1c.9-.4,1.8-.7,2.8-1.1a1,1,0,0,0,.6-1.3A1.15,1.15,0,0,0,67.9,63.6Z" transform="translate(-9.25 -9.21)"/><path class="cls-1" d="M74.6,61.2c-.9.3-1.9.6-2.9,1a1,1,0,0,0-.6,1.3,1,1,0,0,0,.9.7.37.37,0,0,0,.3-.1c1-.3,1.9-.6,2.8-.9a1,1,0,0,0,.6-1.3C75.7,61.4,75.1,61.1,74.6,61.2Z" transform="translate(-9.25 -9.21)"/><path class="cls-1" d="M28.8,76.1a26.42,26.42,0,0,1-2.9-.2,1,1,0,0,0-1.1.9,1,1,0,0,0,.9,1.1c1,.1,2,.2,3,.2h0a1,1,0,0,0,1-1A.83.83,0,0,0,28.8,76.1Z" transform="translate(-9.25 -9.21)"/><path class="cls-1" d="M27.6,45.5a1.11,1.11,0,0,0-1.4-.4,22.42,22.42,0,0,1-11.8,2.8,1,1,0,0,0-.2,2,11.35,11.35,0,0,0,1.4.1,24,24,0,0,0,11.7-3.1A1,1,0,0,0,27.6,45.5Z" transform="translate(-9.25 -9.21)"/></svg>