<?xml version="1.0" encoding="utf-8"?>
<!-- Generator: Adobe Illustrator 23.0.4, SVG Export Plug-In . SVG Version: 6.00 Build 0)  -->
<svg version="1.1" id="Layer_1" xmlns="http://www.w3.org/2000/svg" xmlns:xlink="http://www.w3.org/1999/xlink" x="0px" y="0px"
	 viewBox="0 0 100 125" style="enable-background:new 0 0 100 125;" xml:space="preserve">
<style type="text/css">
	.st0{fill:none;stroke:#FFFFFF;stroke-miterlimit:10;}
	.st1{fill:#FFFFFF;}
</style>
<path class="st0" d="M50,90L50,90c0.3,0,0.6-0.1,0.8-0.4c0.1-0.1,6.7-8.3,13.2-18.7c8.8-14.1,13.3-25.4,13.3-33.6
	C77.3,22.2,65,10,50,10S22.7,22.2,22.7,37.3c0,17.9,25.4,50.9,26.5,52.3C49.4,89.9,49.7,90,50,90z M50,12
	c13.9,0,25.3,11.3,25.3,25.3c0,16.9-20.9,44.5-25.3,50.1c-4.3-5.8-25.3-34.6-25.3-50.1C24.7,23.3,36.1,12,50,12z"/>
<path class="st1" d="M70.4,47.9h-4.8c2.6-1.1,4.4-3.7,4.4-6.7c0-4-3.2-7.3-7.3-7.3c-1.2,0-2.2,0.3-3.2,0.8l-2.9-5l1.8-5.5h2.3
	c0.3,0,0.5-0.2,0.5-0.5s-0.2-0.5-0.5-0.5h-5.5c-0.3,0-0.5,0.2-0.5,0.5s0.2,0.5,0.5,0.5h2.2l-1.6,5H44.1l1.1-4.6
	c0.1-0.2,0-0.3-0.1-0.5S44.9,24,44.7,24h-5.2c-0.1,0-0.1,0-0.2,0.1c-1.6,0.1-2.9,1.4-2.9,3.1c0,1.7,1.4,3.1,3.1,3.1
	c0.3,0,0.5-0.2,0.5-0.5s-0.2-0.5-0.5-0.5c-1.2,0-2.1-0.9-2.1-2.1c0-1.2,0.9-2.1,2.1-2.1c0.1,0,0.1,0,0.1,0h4.5l-2.3,9.7
	c-1-0.5-2-0.7-3.1-0.7c-4,0-7.3,3.2-7.3,7.3c0,3,1.8,5.5,4.4,6.7h-4.8c-0.3,0-0.5,0.2-0.5,0.5c0,0.3,0.2,0.5,0.5,0.5h39.5
	c0.3,0,0.5-0.2,0.5-0.5C70.9,48.3,70.7,47.9,70.4,47.9z M62.7,35c3.4,0,6.3,2.8,6.3,6.3s-2.8,6.3-6.3,6.3c-3,0-5.5-2.1-6.1-4.9
	l4.1-0.6c0.3,0.8,1.1,1.4,2,1.4c1.2,0,2.2-1,2.2-2.2c0-1.2-1-2.2-2.2-2.2c-0.2,0-0.4,0.1-0.6,0.1L60,35.7C60.8,35.2,61.8,35,62.7,35
	z M56.4,41.3c0-2.1,1.1-4,2.7-5.2l2.1,3.5c-0.4,0.4-0.7,0.9-0.7,1.4l-4.1,0.6C56.4,41.6,56.4,41.4,56.4,41.3z M62.7,40.1
	c0.7,0,1.2,0.6,1.2,1.2s-0.6,1.2-1.2,1.2c-0.7,0-1.2-0.6-1.2-1.2S62.1,40.1,62.7,40.1z M58.6,35.2c-1.9,1.3-3.2,3.5-3.2,6
	c0,0.2,0,0.4,0.1,0.6L54.1,42c-0.2-0.5-0.6-0.9-1-1.1l3.1-9.9L58.6,35.2z M52,41.6c0.7,0,1.3,0.6,1.3,1.3s-0.6,1.3-1.3,1.3
	s-1.3-0.6-1.3-1.3S51.3,41.6,52,41.6z M55.4,30.3l-3.2,10.4c-0.1,0-0.1,0-0.2,0c-0.4,0-0.7,0.1-0.9,0.2l-7.5-9.6l0.3-1
	C43.9,30.3,55.4,30.3,55.4,30.3z M32.4,41.3c0-3.4,2.8-6.3,6.3-6.3c1,0,2,0.3,2.9,0.7l-0.3,1.2l-1.7,2.3c-0.3-0.1-0.6-0.2-0.9-0.2
	c-1.2,0-2.2,1-2.2,2.2c0,1.2,1,2.2,2.2,2.2c1.2,0,2.2-1,2.2-2.2c0-0.6-0.2-1-0.5-1.4l1.8-2.4c0.1-0.1,0.1-0.1,0.1-0.2l0.3-1
	c1.5,1.2,2.5,2.9,2.5,5c0,3.4-2.8,6.3-6.3,6.3C35.2,47.5,32.4,44.8,32.4,41.3z M39.8,41.3c0,0.7-0.6,1.2-1.2,1.2
	c-0.7,0-1.2-0.6-1.2-1.2s0.6-1.2,1.2-1.2S39.8,40.6,39.8,41.3z M45.9,41.3c0-2.5-1.3-4.8-3.2-6l0.7-2.7l6.9,8.9
	c-0.3,0.4-0.5,0.9-0.5,1.4c0,1.3,1,2.3,2.3,2.3c1.2,0,2.2-0.9,2.2-2.1l1.3-0.2c0.5,2.3,2.1,4.2,4.2,5.1H41.5
	C44.1,46.8,45.9,44.2,45.9,41.3z"/>
</svg>
