<svg id="Capa_1" data-name="Capa 1" xmlns="http://www.w3.org/2000/svg" viewBox="0 0 142.6 250.82"><defs><style>.cls-1{fill:#fff;}</style></defs><title>noun_next</title><g id="Chevron_Right" data-name="Chevron Right"><path class="cls-1" d="M17.18,248.32a14.64,14.64,0,0,1-10.37-25l97.92-97.91L6.8,27.5a14.65,14.65,0,0,1,10.38-25A14.55,14.55,0,0,1,27.54,6.79l108.3,108.26a14.75,14.75,0,0,1,0,20.72L27.56,244A14.61,14.61,0,0,1,17.18,248.32Z"/><path class="cls-1" d="M17.18,5a12.14,12.14,0,0,1,8.6,3.55l108.3,108.27a12.27,12.27,0,0,1,0,17.19L25.79,242.27A12.16,12.16,0,0,1,8.58,225.08l99.69-99.68L8.56,25.73A12.14,12.14,0,0,1,17.18,5m0-5A17.14,17.14,0,0,0,5,29.27l96.17,96.14L5,221.54a17.15,17.15,0,0,0,12.14,29.28,17.08,17.08,0,0,0,12.14-5l108.3-108.27a17.25,17.25,0,0,0,0-24.26L29.31,5A17,17,0,0,0,17.18,0Z"/></g></svg>