<?xml version="1.0" encoding="utf-8"?>
<!-- Generator: Adobe Illustrator 23.0.4, SVG Export Plug-In . SVG Version: 6.00 Build 0)  -->
<svg version="1.1" id="Layer_1" xmlns="http://www.w3.org/2000/svg" xmlns:xlink="http://www.w3.org/1999/xlink" x="0px" y="0px"
	 viewBox="0 0 100 125" style="enable-background:new 0 0 100 125;" xml:space="preserve">
<style type="text/css">
	.st0{fill:#FFFFFF;}
</style>
<path class="st0" d="M89,58.7h-9.5c5.1-2.2,8.6-7.3,8.6-13.2c0-7.9-6.4-14.4-14.4-14.4c-2.3,0-4.4,0.5-6.3,1.5l-5.7-9.8L65.2,12h4.5
	c0.6,0,1-0.4,1-1s-0.4-1-1-1H58.8c-0.6,0-1,0.4-1,1s0.4,1,1,1h4.3L60,21.8H37.1l2.2-9c0.1-0.3,0-0.6-0.2-0.9s-0.5-0.4-0.8-0.4H28
	c-0.1,0-0.2,0-0.3,0.1c-3.2,0.1-5.8,2.8-5.8,6.1c0,3.4,2.7,6.1,6.1,6.1c0.6,0,1-0.4,1-1s-0.4-1-1-1c-2.3,0-4.1-1.8-4.1-4.1
	s1.8-4.1,4.1-4.1c0.1,0,0.2,0,0.2,0H37l-4.6,19.1c-1.9-0.9-3.9-1.4-6.1-1.4c-7.9,0-14.4,6.4-14.4,14.4c0,5.9,3.6,10.9,8.6,13.2H11
	c-0.6,0-1,0.4-1,1s0.4,1,1,1h78c0.6,0,1-0.4,1-1S89.6,58.7,89,58.7z M73.7,33.2c6.8,0,12.4,5.5,12.4,12.4s-5.5,12.4-12.4,12.4
	c-5.9,0-10.8-4.1-12-9.6l8-1.2c0.6,1.6,2.2,2.7,4,2.7c2.4,0,4.3-2,4.3-4.3s-2-4.3-4.3-4.3c-0.4,0-0.8,0.1-1.2,0.2l-4.1-7
	C70.1,33.6,71.9,33.2,73.7,33.2z M61.4,45.5c0-4.2,2.1-7.9,5.4-10.2l4.1,7c-0.8,0.7-1.3,1.7-1.4,2.8l-8,1.2
	C61.4,46.1,61.4,45.8,61.4,45.5z M73.7,43.2c1.3,0,2.3,1.1,2.3,2.3s-1.1,2.3-2.3,2.3c-1.3,0-2.3-1.1-2.3-2.3S72.5,43.2,73.7,43.2z
	 M65.7,33.6c-3.8,2.6-6.3,7-6.3,11.9c0,0.4,0,0.7,0.1,1.1L56.8,47c-0.4-0.9-1.1-1.7-1.9-2.1L61,25.4L65.7,33.6z M52.7,46.2
	c1.4,0,2.5,1.1,2.5,2.5s-1.1,2.5-2.5,2.5s-2.5-1.1-2.5-2.5S51.3,46.2,52.7,46.2z M59.4,23.8L53,44.3c-0.1,0-0.2,0-0.3,0
	c-0.7,0-1.3,0.1-1.8,0.4L36.1,25.7l0.5-1.9H59.4z M13.9,45.5c0-6.8,5.5-12.4,12.4-12.4c2,0,4,0.5,5.7,1.4l-0.6,2.4L28,41.5
	c-0.5-0.2-1.1-0.3-1.7-0.3c-2.4,0-4.3,2-4.3,4.3s2,4.3,4.3,4.3c2.4,0,4.3-2,4.3-4.3c0-1.1-0.4-2-1-2.8l3.5-4.8
	c0.1-0.1,0.1-0.2,0.2-0.4l0.5-1.9c3,2.3,4.9,5.8,4.9,9.8c0,6.8-5.5,12.4-12.4,12.4S13.9,52.4,13.9,45.5z M28.6,45.5
	c0,1.3-1.1,2.3-2.3,2.3c-1.3,0-2.3-1.1-2.3-2.3s1.1-2.3,2.3-2.3C27.5,43.2,28.6,44.2,28.6,45.5z M40.6,45.5c0-5-2.5-9.4-6.4-11.9
	l1.3-5.4l13.7,17.6c-0.6,0.8-1,1.8-1,2.8c0,2.5,2,4.5,4.5,4.5c2.4,0,4.3-1.8,4.4-4.2l2.6-0.4c1,4.5,4.1,8.3,8.3,10.1H32
	C37,56.5,40.6,51.4,40.6,45.5z"/>
</svg>
