<?xml version="1.0" encoding="utf-8"?>
<!-- Generator: Adobe Illustrator 23.0.4, SVG Export Plug-In . SVG Version: 6.00 Build 0)  -->
<svg version="1.1" id="Layer_1" xmlns="http://www.w3.org/2000/svg" xmlns:xlink="http://www.w3.org/1999/xlink" x="0px" y="0px"
	 viewBox="0 0 100 125" style="enable-background:new 0 0 100 125;" xml:space="preserve">
<style type="text/css">
	.st0{fill:#FFFFFF;}
</style>
<path class="st0" d="M11.4,80.2c0.3,0.1,0.7,0,0.9-0.3l8-8c1.1-1.1,3.1-1.1,4.2,0l3.4,3.4c1.2,1.2,1.2,3.1,0,4.2l-8,8
	c-0.2,0.2-0.3,0.6-0.3,0.9c0.1,0.3,0.3,0.6,0.7,0.7c1.5,0.5,3,0.7,4.5,0.7c3.9,0,7.7-1.5,10.6-4.4c4.3-4.3,5.5-10.7,3.3-16.2
	l30.5-30.5c5.5,2.3,12,1,16.2-3.3c4-4,5.4-9.8,3.7-15.1c-0.1-0.3-0.4-0.6-0.7-0.7c-0.3-0.1-0.7,0-0.9,0.3l-8,8
	c-1.1,1.1-3.1,1.1-4.2,0L72,24.6c-1.2-1.2-1.2-3.1,0-4.2l8-8c0.2-0.2,0.3-0.6,0.3-0.9c-0.1-0.3-0.3-0.6-0.7-0.7
	c-5.4-1.7-11.1-0.3-15.1,3.7c-4.2,4.2-5.5,10.3-3.5,15.8L30.2,61c-5.5-2-11.6-0.7-15.8,3.5c-4,4-5.4,9.8-3.7,15.1
	C10.8,79.9,11.1,80.1,11.4,80.2z M15.8,65.8c3.7-3.7,9.3-4.8,14.2-2.8c0.4,0.2,0.8,0.1,1.1-0.2l31.7-31.7c0.3-0.3,0.4-0.7,0.2-1.1
	c-2.1-4.9-1-10.5,2.8-14.2c3-3,7.3-4.3,11.4-3.6l-6.7,6.7c-2,2-2,5.1,0,7.1l3.4,3.4c0.9,0.9,2.2,1.5,3.5,1.5c1.3,0,2.6-0.5,3.5-1.5
	l6.7-6.7c0.7,4.1-0.6,8.4-3.6,11.4c-3.8,3.8-9.7,4.9-14.6,2.6c-0.4-0.2-0.8-0.1-1.1,0.2L36.9,68.5c-0.3,0.3-0.4,0.7-0.2,1.1
	c2.3,4.9,1.2,10.8-2.6,14.6c-3,3-7.3,4.3-11.4,3.6l6.7-6.7c2-2,2-5.1,0-7.1L26,70.6c-0.9-0.9-2.2-1.5-3.5-1.5
	c-1.3,0-2.6,0.5-3.5,1.5l-6.7,6.7C11.5,73.1,12.8,68.9,15.8,65.8z"/>
</svg>
