<svg id="Layer_1" data-name="Layer 1" xmlns="http://www.w3.org/2000/svg" viewBox="0 0 81.94 82.04"><defs><style>.cls-1{stroke:#fff;stroke-miterlimit:10;stroke-width:2px;}</style></defs><title>noun_services</title><path class="cls-1" d="M50,61.4A11.4,11.4,0,1,0,38.6,50,11.39,11.39,0,0,0,50,61.4Zm0-20.8A9.4,9.4,0,1,1,40.6,50,9.39,9.39,0,0,1,50,40.6Z" transform="translate(-9 -9)"/><path class="cls-1" d="M10.9,57.4a1,1,0,0,0-.7.4,1.2,1.2,0,0,0-.2.8,39.07,39.07,0,0,0,5.6,13.5,1,1,0,0,0,.7.4,1.08,1.08,0,0,0,.8-.2A7.46,7.46,0,0,1,27.6,82.8a.78.78,0,0,0-.2.8,1,1,0,0,0,.4.7A42.77,42.77,0,0,0,41.4,90a.78.78,0,0,0,.8-.2,1,1,0,0,0,.4-.7,7.44,7.44,0,0,1,14.8,0,1,1,0,0,0,.4.7,1.42,1.42,0,0,0,.6.2h.2a39.07,39.07,0,0,0,13.5-5.6,1,1,0,0,0,.4-.7,1.08,1.08,0,0,0-.2-.8A7.46,7.46,0,0,1,82.8,72.4a.78.78,0,0,0,.8.2,1,1,0,0,0,.7-.4,39.89,39.89,0,0,0,5.6-13.5.78.78,0,0,0-.2-.8,1,1,0,0,0-.7-.4,7.44,7.44,0,0,1,0-14.8,1,1,0,0,0,.7-.4,1.08,1.08,0,0,0,.2-.8A39.07,39.07,0,0,0,84.3,28a1,1,0,0,0-.7-.4,1.08,1.08,0,0,0-.8.2A7.46,7.46,0,0,1,72.3,17.3a.78.78,0,0,0,.2-.8,1,1,0,0,0-.4-.7,39.89,39.89,0,0,0-13.5-5.6.78.78,0,0,0-.8.2,1,1,0,0,0-.4.7,7.44,7.44,0,0,1-14.8,0,1,1,0,0,0-.4-.7,1.23,1.23,0,0,0-.8-.4,39.07,39.07,0,0,0-13.5,5.6,1,1,0,0,0-.4.7,1.08,1.08,0,0,0,.2.8A7.46,7.46,0,0,1,17.2,27.6a.78.78,0,0,0-.8-.2,1,1,0,0,0-.7.4,39.89,39.89,0,0,0-5.6,13.5.78.78,0,0,0,.2.8,1,1,0,0,0,.7.4,7.47,7.47,0,0,1,6.7,7.4A7.66,7.66,0,0,1,10.9,57.4ZM19.6,50a9.34,9.34,0,0,0-7.4-9.2,36.7,36.7,0,0,1,4.6-11,9.52,9.52,0,0,0,11.7-1.3,9.27,9.27,0,0,0,1.3-11.7,39.46,39.46,0,0,1,11-4.6,9.42,9.42,0,0,0,18.4,0,36.7,36.7,0,0,1,11,4.6,9.52,9.52,0,0,0,1.3,11.7,9.27,9.27,0,0,0,11.7,1.3,39.46,39.46,0,0,1,4.6,11,9.42,9.42,0,0,0,0,18.4,36.7,36.7,0,0,1-4.6,11,9.52,9.52,0,0,0-11.7,1.3,9.27,9.27,0,0,0-1.3,11.7,39.46,39.46,0,0,1-11,4.6,9.42,9.42,0,0,0-18.4,0,36.7,36.7,0,0,1-11-4.6,9.52,9.52,0,0,0-1.3-11.7,9.27,9.27,0,0,0-11.7-1.3,39.46,39.46,0,0,1-4.6-11A9.34,9.34,0,0,0,19.6,50Z" transform="translate(-9 -9)"/></svg>