<?xml version="1.0" encoding="utf-8"?>
<!-- Generator: Adobe Illustrator 23.0.4, SVG Export Plug-In . SVG Version: 6.00 Build 0)  -->
<svg version="1.1" id="Layer_1" xmlns="http://www.w3.org/2000/svg" xmlns:xlink="http://www.w3.org/1999/xlink" x="0px" y="0px"
	 viewBox="0 0 100 125" style="enable-background:new 0 0 100 125;" xml:space="preserve">
<style type="text/css">
	.st0{fill:#FFFFFF;}
</style>
<path class="st0" d="M89,88h-2.2V37.2c0-0.6-0.4-1-1-1h-17c-0.6,0-1,0.4-1,1V88h-8.2V24.1c0-0.6-0.4-1-1-1h-17c-0.6,0-1,0.4-1,1V88
	h-8.2V11c0-0.6-0.4-1-1-1h-17c-0.6,0-1,0.4-1,1v77H11c-0.6,0-1,0.4-1,1s0.4,1,1,1h78c0.6,0,1-0.4,1-1S89.6,88,89,88z M69.8,38.2h15
	V88h-15V38.2z M42.6,25.1h15V88h-15V25.1z M15.4,12h15v76h-15V12z"/>
</svg>
