<svg id="Layer_1" data-name="Layer 1" xmlns="http://www.w3.org/2000/svg" viewBox="0 0 50.04 72.85"><defs><style>.cls-1{fill:#fff;}.cls-1,.cls-2{stroke:#fff;stroke-miterlimit:10;}.cls-2{fill:none;}</style></defs><title>noun_marker</title><path class="cls-1" d="M50,81.85h0a.82.82,0,0,0,.72-.36A184.33,184.33,0,0,0,62.57,64.7C70.48,52,74.52,41.88,74.52,34.52a24.52,24.52,0,1,0-49,0c0,16.08,22.81,45.71,23.8,47A.82.82,0,0,0,50,81.85Zm0-70A22.75,22.75,0,0,1,72.72,34.52c0,15.18-18.77,40-22.72,45-3.86-5.21-22.72-31.08-22.72-45A22.75,22.75,0,0,1,50,11.8Z" transform="translate(-24.98 -9.5)"/><path class="cls-2" d="M66.51,44.11h-4A6.13,6.13,0,0,0,60,32.35a5.79,5.79,0,0,0-2.69.67l-2.44-4.2,1.52-4.62h1.93a.42.42,0,1,0,0-.84H53.74a.42.42,0,1,0,0,.84h1.85l-1.35,4.2H44.41l.93-3.86c.08-.17,0-.26-.09-.42s-.16-.09-.33-.09H40.55c-.08,0-.08,0-.17.09A2.58,2.58,0,0,0,38,26.72a2.61,2.61,0,0,0,2.6,2.6A.39.39,0,0,0,41,28.9a.4.4,0,0,0-.42-.42,1.76,1.76,0,1,1,0-3.52h3.86L42.48,33.1a5.62,5.62,0,0,0-2.6-.58,6.11,6.11,0,0,0-6.13,6.13,6.19,6.19,0,0,0,3.69,5.63h-4a.39.39,0,0,0-.42.42.4.4,0,0,0,.42.42H66.59A.4.4,0,0,0,67,44.7C66.93,44.44,66.76,44.11,66.51,44.11ZM60,33.27a5.3,5.3,0,0,1,0,10.59,5.25,5.25,0,0,1-5.13-4.12l3.45-.5A1.82,1.82,0,0,0,60,40.41a1.85,1.85,0,1,0,0-3.69c-.17,0-.34.08-.51.08l-1.76-2.94A4.35,4.35,0,0,1,60,33.27Zm-5.29,5.29A5.51,5.51,0,0,1,57,34.2l1.77,2.94a1.73,1.73,0,0,0-.59,1.17l-3.44.51Zm5.29-1a1,1,0,0,1,1,1,1.09,1.09,0,0,1-1,1,1,1,0,0,1-1-1A1.08,1.08,0,0,1,60,37.56Zm-3.45-4.12a6.13,6.13,0,0,0-2.68,5A1.08,1.08,0,0,0,54,39l-1.18.17a1.77,1.77,0,0,0-.84-.92l2.61-8.32Zm-5.54,5.38A1.09,1.09,0,1,1,50,39.91,1.11,1.11,0,0,1,51.05,38.82Zm2.86-9.5-2.69,8.74h-.17a1.61,1.61,0,0,0-.76.17L44,30.16l.26-.84ZM34.59,38.56a5.32,5.32,0,0,1,5.29-5.29,6,6,0,0,1,2.43.59l-.25,1L40.63,36.8a2.54,2.54,0,0,0-.75-.17,1.84,1.84,0,1,0,1.43.67l1.51-2c.08-.09.08-.09.08-.17l.25-.84A5.28,5.28,0,0,1,40,43.77,5.22,5.22,0,0,1,34.59,38.56Zm6.21,0a1,1,0,1,1-2,0,1.08,1.08,0,0,1,1-1A1,1,0,0,1,40.8,38.56Zm5.13,0a6,6,0,0,0-2.69-5l.59-2.26,5.79,7.47a2,2,0,0,0-.42,1.18,1.9,1.9,0,0,0,1.93,1.93A1.8,1.8,0,0,0,53,40.08l1.09-.17a6.08,6.08,0,0,0,3.53,4.28H42.23A6.29,6.29,0,0,0,45.93,38.56Z" transform="translate(-24.98 -9.5)"/></svg>