<?xml version="1.0" encoding="utf-8"?>
<!-- Generator: Adobe Illustrator 23.0.4, SVG Export Plug-In . SVG Version: 6.00 Build 0)  -->
<svg version="1.1" id="Layer_1" xmlns="http://www.w3.org/2000/svg" xmlns:xlink="http://www.w3.org/1999/xlink" x="0px" y="0px"
	 viewBox="0 0 100 125" style="enable-background:new 0 0 100 125;" xml:space="preserve">
<style type="text/css">
	.st0{fill:#FFFFFF;}
</style>
<path class="st0" d="M83.4,26.2H72.9v-8.8c0-4-3.3-7.3-7.3-7.3H34.5c-4,0-7.3,3.3-7.3,7.3v8.8H16.6c-3.6,0-6.6,2.9-6.6,6.6v50.7
	c0,3.6,2.9,6.6,6.6,6.6h66.9c3.6,0,6.6-2.9,6.6-6.6V32.7C90,29.1,87.1,26.2,83.4,26.2z M12,39c5.7-0.4,10.3-5.1,10.6-10.8h54.7
	C77.5,34,82.2,38.7,88,39v38.6c-5.7,0.3-10.2,4.8-10.7,10.4H22.6c-0.5-5.6-5-10-10.6-10.4V39z M64,26.2H36V19c0-0.4,0.3-0.7,0.7-0.7
	h26.5c0.4,0,0.7,0.3,0.7,0.7V26.2z M88,32.7V37c-4.7-0.3-8.5-4.1-8.7-8.8h4.2C86,28.2,88,30.2,88,32.7z M29.1,17.3
	c0-2.9,2.4-5.3,5.3-5.3h31.1c2.9,0,5.3,2.4,5.3,5.3v8.8H66V19c0-1.5-1.2-2.7-2.7-2.7H36.8c-1.5,0-2.7,1.2-2.7,2.7v7.1h-4.9V17.3z
	 M16.6,28.2h4c-0.3,4.7-3.9,8.4-8.6,8.8v-4.3C12,30.2,14,28.2,16.6,28.2z M12,83.4v-3.8c4.5,0.4,8.1,3.9,8.5,8.4h-4
	C14,88,12,86,12,83.4z M83.4,88h-4.2c0.5-4.5,4.2-8.1,8.7-8.4v3.8C88,86,86,88,83.4,88z"/>
</svg>
