<svg id="Layer_1" data-name="Layer 1" xmlns="http://www.w3.org/2000/svg" viewBox="0 0 81 51.9"><defs><style>.cls-1{fill:#fff;stroke:#fff;stroke-miterlimit:10;}</style></defs><title>noun_count</title><path class="cls-1" d="M89,58.7H79.5a14.41,14.41,0,0,0-5.8-27.6,13.32,13.32,0,0,0-6.3,1.5l-5.7-9.8L65.2,12h4.5a.94.94,0,0,0,1-1,.94.94,0,0,0-1-1H58.8a.94.94,0,0,0-1,1,.94.94,0,0,0,1,1h4.3L60,21.8H37.1l2.2-9a1,1,0,0,0-.2-.9.91.91,0,0,0-.8-.4H28a.37.37,0,0,0-.3.1A6.1,6.1,0,0,0,28,23.8a1,1,0,0,0,0-2,4.1,4.1,0,0,1,0-8.2h9L32.4,32.7a14,14,0,0,0-6.1-1.4A14.4,14.4,0,0,0,11.9,45.7a14.59,14.59,0,0,0,8.6,13.2H11a1,1,0,0,0,0,2H89a.94.94,0,0,0,1-1A1.12,1.12,0,0,0,89,58.7ZM73.7,33.2a12.4,12.4,0,0,1,0,24.8,12.24,12.24,0,0,1-12-9.6l8-1.2a4.26,4.26,0,0,0,4,2.7A4.33,4.33,0,0,0,78,45.6a4.4,4.4,0,0,0-4.3-4.3,5,5,0,0,0-1.2.2l-4.1-7A11.22,11.22,0,0,1,73.7,33.2ZM61.4,45.5a12.38,12.38,0,0,1,5.4-10.2l4.1,7a4.21,4.21,0,0,0-1.4,2.8l-8,1.2A2,2,0,0,1,61.4,45.5Zm12.3-2.3A2.33,2.33,0,0,1,76,45.5a2.4,2.4,0,0,1-2.3,2.3,2.33,2.33,0,0,1-2.3-2.3A2.4,2.4,0,0,1,73.7,43.2Zm-8-9.6a14.46,14.46,0,0,0-6.3,11.9,4.1,4.1,0,0,0,.1,1.1l-2.7.4a4.35,4.35,0,0,0-1.9-2.1L61,25.4Zm-13,12.6a2.5,2.5,0,1,1-2.5,2.5A2.48,2.48,0,0,1,52.7,46.2Zm6.7-22.4L53,44.3h-.3a3.42,3.42,0,0,0-1.8.4l-14.8-19,.5-1.9ZM13.9,45.5A12.38,12.38,0,0,1,32,34.5l-.6,2.4L28,41.5a4.67,4.67,0,0,0-1.7-.3A4.33,4.33,0,0,0,22,45.5a4.4,4.4,0,0,0,4.3,4.3,4.33,4.33,0,0,0,4.3-4.3,4.55,4.55,0,0,0-1-2.8l3.5-4.8c.1-.1.1-.2.2-.4l.5-1.9a12.26,12.26,0,0,1,4.9,9.8A12.4,12.4,0,0,1,26.3,57.8,12.25,12.25,0,0,1,13.9,45.5Zm14.7,0a2.3,2.3,0,0,1-4.6,0,2.4,2.4,0,0,1,2.3-2.3A2.33,2.33,0,0,1,28.6,45.5Zm12,0a14,14,0,0,0-6.4-11.9l1.3-5.4L49.2,45.8a4.78,4.78,0,0,0-1,2.8,4.48,4.48,0,0,0,4.5,4.5,4.33,4.33,0,0,0,4.4-4.2l2.6-.4A14.39,14.39,0,0,0,68,58.6H32A14.24,14.24,0,0,0,40.6,45.5Z" transform="translate(-9.5 -9.5)"/></svg>