<svg id="Layer_1" data-name="Layer 1" xmlns="http://www.w3.org/2000/svg" viewBox="0 0 82.45 74.68"><defs><style>.cls-1{fill:none;stroke:#fff;stroke-miterlimit:10;stroke-width:4px;}</style></defs><title>noun_commute</title><rect class="cls-1" x="2" y="17.02" width="78.45" height="55.65" rx="2.71"/><path class="cls-1" d="M28,36.76V27.57a5.68,5.68,0,0,1,5.67-5.67H65.85a5.68,5.68,0,0,1,5.67,5.67v8.81" transform="translate(-8.78 -19.9)"/><path class="cls-1" d="M35.5,36.76V29.9a1,1,0,0,1,1-.94h27a.94.94,0,0,1,.94.94v6.86" transform="translate(-8.78 -19.9)"/><path class="cls-1" d="M22.16,38.05a10.81,10.81,0,0,1-10.8,10.8c-.31,0-.62,0-.93,0" transform="translate(-8.78 -19.9)"/><path class="cls-1" d="M88.65,48.85a10.81,10.81,0,0,1-10.8-10.8" transform="translate(-8.78 -19.9)"/><path class="cls-1" d="M76.92,91.71a10.8,10.8,0,0,1,10.8-10.8c.31,0,.62,0,.93,0" transform="translate(-8.78 -19.9)"/><path class="cls-1" d="M10.43,80.91a10.8,10.8,0,0,1,10.8,10.8" transform="translate(-8.78 -19.9)"/></svg>