<?xml version="1.0" encoding="UTF-8"?>
<svg width="18px" height="16px" viewBox="0 0 18 16" version="1.1" xmlns="http://www.w3.org/2000/svg" xmlns:xlink="http://www.w3.org/1999/xlink">
    <!-- Generator: Sketch 55.2 (78181) - https://sketchapp.com -->
    <title>noun_Work_1923533</title>
    <desc>Created with Sketch.</desc>
    <g id="Page-1" stroke="none" stroke-width="1" fill="none" fill-rule="evenodd">
        <g id="Desktop-HD" transform="translate(-58.000000, -442.000000)" fill="#FFFFFF" fill-rule="nonzero">
            <g id="noun_Work_1923533" transform="translate(58.000000, 442.000000)">
                <path d="M17,3 L12,3 L12,1 C12,0.44771525 11.5522847,0 11,0 L7,0 C6.44771525,0 6,0.44771525 6,1 L6,3 L1,3 C0.44771525,3 0,3.44771525 0,4 L0,15 C0,15.5522847 0.44771525,16 1,16 L17,16 C17.5522847,16 18,15.5522847 18,15 L18,4 C18,3.44771525 17.5522847,3 17,3 Z M7,1 L11,1 L11,3 L7,3 L7,1 Z M17,15 L1,15 L1,9 L7,9 L7,10 L11,10 L11,9 L17,9 L17,15 Z M17,8 L11,8 L11,7 L7,7 L7,8 L1,8 L1,4 L17,4 L17,8 Z" id="Shape"></path>
            </g>
        </g>
    </g>
</svg>